<?xml version="1.0" encoding="UTF-8"?>
<svg version="1.1" xmlns="http://www.w3.org/2000/svg" width="512" height="512">
<path d="M0 0 C9.12892844 6.38850442 14.85927407 14.30899574 17.375 25.19921875 C19.21066866 36.09314023 16.55585988 46.33581766 10.79296875 55.6796875 C11.52466782 55.68555374 12.25636688 55.69141998 13.01023865 55.69746399 C19.93893549 55.75560366 26.86736214 55.82780059 33.7957449 55.91540241 C37.35688915 55.9599437 40.91792329 55.99923428 44.47924805 56.02612305 C48.58280544 56.05734405 52.68576574 56.11212528 56.7890625 56.16796875 C58.05503769 56.17435867 59.32101288 56.1807486 60.62535095 56.18733215 C70.85248071 56.35595057 78.48768662 57.6476294 86.06640625 64.7734375 C89.58598381 68.65930594 92.81666153 73.51584802 92.77622986 78.91493225 C92.68191429 80.24493507 92.68191429 80.24493507 92.58569336 81.60180664 C89.99338691 124.22687386 95.97971701 163.91067552 105.23046875 205.4921875 C105.5144968 206.77012302 105.79852486 208.04805855 106.09115982 209.36471939 C108.74022814 221.25502509 111.42931834 233.1360558 114.15888977 245.00813293 C120.29084533 271.68401428 126.09434188 298.42663264 131.80165005 325.19630527 C133.38313751 332.61155265 134.9779805 340.02363632 136.5942176 347.43139106 C137.82704706 353.08325028 139.04612477 358.737999 140.26015663 364.39392281 C140.75832727 366.70323129 141.26125864 369.011519 141.76943016 371.31864738 C148.66533043 402.66793381 148.66533043 402.66793381 143.20703125 412.65625 C138.12657019 419.92608102 132.81797899 423.0534633 124.3527832 425.11303711 C123.52273679 425.32271842 122.69269037 425.53239973 121.83749104 425.74843502 C111.74828 428.25581948 101.57486637 430.37798624 91.3984375 432.49609375 C89.24061815 432.94906462 87.08289577 433.4024976 84.92526245 433.85635376 C80.33599548 434.82084282 75.74614551 435.7824853 71.15579224 436.74179077 C63.85401912 438.26787876 56.55369518 439.80081782 49.25366211 441.33520508 C48.02277265 441.59390601 46.79188318 441.85260695 45.52369404 442.1191473 C43.02608404 442.64408273 40.52847745 443.16903438 38.03087425 443.69400215 C34.25800768 444.48679645 30.48501447 445.2789855 26.71199036 446.07102966 C5.32011044 450.56257488 -16.06243339 455.09717921 -37.44082642 459.6524353 C-42.18616943 460.66339596 -46.93193341 461.67236393 -51.67786121 462.68057537 C-70.74786377 466.7318636 -89.81293922 470.80436914 -108.86714172 474.92939758 C-116.52084656 476.58608124 -124.1762821 478.23470225 -131.83212948 479.88145351 C-138.0705468 481.22409584 -144.30651481 482.57742671 -150.54081059 483.9390707 C-154.38284476 484.7755271 -158.2270407 485.60168543 -162.07189369 486.42507744 C-163.84548561 486.80709676 -165.61817246 487.19334791 -167.38982201 487.5842762 C-181.89264418 490.78092949 -193.7160732 493.11732085 -206.95703125 484.9921875 C-212.7980748 478.98889274 -214.68103649 472.35802474 -216.359375 464.34375 C-216.53915894 463.50948486 -216.71894287 462.67521973 -216.9041748 461.81567383 C-217.34388347 459.77150408 -217.7762046 457.72574764 -218.20703125 455.6796875 C-219.27550293 455.83115234 -220.34397461 455.98261719 -221.44482422 456.13867188 C-225.45086974 456.70469215 -229.45814021 457.26160015 -233.46582031 457.81591797 C-235.19239859 458.05598904 -236.91864615 458.29845238 -238.64453125 458.54345703 C-265.00484792 462.28088619 -265.00484792 462.28088619 -275.20703125 456.6796875 C-278.08203125 454.2421875 -278.08203125 454.2421875 -280.20703125 451.6796875 C-281.28984375 450.473125 -281.28984375 450.473125 -282.39453125 449.2421875 C-286.6372395 443.24387584 -287.02517482 435.98569209 -287.99732971 428.88858032 C-288.16575864 427.69261746 -288.33418757 426.49665459 -288.50772041 425.26445043 C-288.97285994 421.95333847 -289.43289122 418.6415897 -289.89076602 415.32947016 C-290.3862926 411.75417015 -290.8884059 408.17979462 -291.38970947 404.6053009 C-292.37033417 397.60562482 -293.34494593 390.60512407 -294.3176157 383.60433866 C-295.45093706 375.44924521 -296.59060469 367.29504254 -297.73063564 359.1408848 C-299.7649472 344.58901542 -301.79409095 330.03643029 -303.82006836 315.48339844 C-305.7852111 301.36742501 -307.75305466 287.25183221 -309.72436523 273.13671875 C-309.8457412 272.26762861 -309.96711717 271.39853847 -310.0921712 270.50311227 C-310.58008696 267.00955238 -311.06801839 263.51599468 -311.55597142 260.02243999 C-315.29774722 233.23238085 -319.03709661 206.44198012 -322.76805115 179.65041161 C-323.15923893 176.84143266 -323.55067787 174.0324889 -323.94235039 171.2235775 C-324.47678109 167.39072828 -325.0103028 163.55775286 -325.54371643 159.72476196 C-325.69896823 158.61210956 -325.85422003 157.49945716 -326.01417643 156.35308802 C-330.44663203 124.46689463 -330.44663203 124.46689463 -323.20703125 114.6796875 C-315.49469069 105.6851464 -303.99193328 104.97222503 -292.89453125 103.4921875 C-291.63318359 103.31494141 -290.37183594 103.13769531 -289.07226562 102.95507812 C-279.82937681 101.6796875 -279.82937681 101.6796875 -275.20703125 101.6796875 C-275.23321533 100.97473145 -275.25939941 100.26977539 -275.28637695 99.54345703 C-275.39138751 96.29743438 -275.45568411 93.05177048 -275.51953125 89.8046875 C-275.56142578 88.69609375 -275.60332031 87.5875 -275.64648438 86.4453125 C-275.77386806 77.78322164 -274.17431472 71.08555253 -268.2746582 64.53369141 C-260.81071934 57.17702474 -252.32458812 56.29946239 -242.18728638 56.306427 C-240.7465189 56.31704046 -239.30575353 56.32794483 -237.86499023 56.33911133 C-236.32673662 56.3399588 -234.78848179 56.33948011 -233.25022888 56.33778381 C-229.09789385 56.33692713 -224.94582164 56.35449949 -220.79354739 56.37550569 C-216.44539157 56.39432738 -212.09722897 56.39602724 -207.7490387 56.39958191 C-199.52569305 56.40888629 -191.30246781 56.43347821 -183.07917506 56.46363038 C-173.71277704 56.49722454 -164.34637312 56.51367299 -154.9799298 56.52871668 C-135.72222882 56.56002928 -116.46463974 56.61275836 -97.20703125 56.6796875 C-96.89854248 55.41060547 -96.59005371 54.14152344 -96.2722168 52.83398438 C-93.78346812 42.59560121 -87.17119769 33.91024973 -78.26953125 28.3671875 C-72.92068539 25.38480072 -67.8227088 22.6796875 -61.58203125 22.6796875 C-58.10810976 22.03601504 -58.10810976 22.03601504 -56.68359375 19.45703125 C-55.67461798 17.51648791 -54.68857121 15.563895 -53.72265625 13.6015625 C-49.04500134 4.5838154 -41.40018122 -1.21752205 -31.84765625 -4.4609375 C-20.71842976 -7.08800813 -9.81494599 -5.87159601 0 0 Z " fill="#FEFEFE" transform="translate(347.20703125,13.3203125)"/>
<path d="M0 0 C9.12892844 6.38850442 14.85927407 14.30899574 17.375 25.19921875 C19.21066866 36.09314023 16.55585988 46.33581766 10.79296875 55.6796875 C11.52466782 55.68555374 12.25636688 55.69141998 13.01023865 55.69746399 C19.93893549 55.75560366 26.86736214 55.82780059 33.7957449 55.91540241 C37.35688915 55.9599437 40.91792329 55.99923428 44.47924805 56.02612305 C48.58280544 56.05734405 52.68576574 56.11212528 56.7890625 56.16796875 C58.05503769 56.17435867 59.32101288 56.1807486 60.62535095 56.18733215 C70.85248071 56.35595057 78.48768662 57.6476294 86.06640625 64.7734375 C89.58598381 68.65930594 92.81666153 73.51584802 92.77622986 78.91493225 C92.68191429 80.24493507 92.68191429 80.24493507 92.58569336 81.60180664 C89.99338691 124.22687386 95.97971701 163.91067552 105.23046875 205.4921875 C105.5144968 206.77012302 105.79852486 208.04805855 106.09115982 209.36471939 C108.74022814 221.25502509 111.42931834 233.1360558 114.15888977 245.00813293 C120.29084533 271.68401428 126.09434188 298.42663264 131.80165005 325.19630527 C133.38313751 332.61155265 134.9779805 340.02363632 136.5942176 347.43139106 C137.82704706 353.08325028 139.04612477 358.737999 140.26015663 364.39392281 C140.75832727 366.70323129 141.26125864 369.011519 141.76943016 371.31864738 C148.66533043 402.66793381 148.66533043 402.66793381 143.20703125 412.65625 C138.12657019 419.92608102 132.81797899 423.0534633 124.3527832 425.11303711 C123.52273679 425.32271842 122.69269037 425.53239973 121.83749104 425.74843502 C111.74828 428.25581948 101.57486637 430.37798624 91.3984375 432.49609375 C89.24061815 432.94906462 87.08289577 433.4024976 84.92526245 433.85635376 C80.33599548 434.82084282 75.74614551 435.7824853 71.15579224 436.74179077 C63.85401912 438.26787876 56.55369518 439.80081782 49.25366211 441.33520508 C48.02277265 441.59390601 46.79188318 441.85260695 45.52369404 442.1191473 C43.02608404 442.64408273 40.52847745 443.16903438 38.03087425 443.69400215 C34.25800768 444.48679645 30.48501447 445.2789855 26.71199036 446.07102966 C5.32011044 450.56257488 -16.06243339 455.09717921 -37.44082642 459.6524353 C-42.18616943 460.66339596 -46.93193341 461.67236393 -51.67786121 462.68057537 C-70.74786377 466.7318636 -89.81293922 470.80436914 -108.86714172 474.92939758 C-116.52084656 476.58608124 -124.1762821 478.23470225 -131.83212948 479.88145351 C-138.0705468 481.22409584 -144.30651481 482.57742671 -150.54081059 483.9390707 C-154.38284476 484.7755271 -158.2270407 485.60168543 -162.07189369 486.42507744 C-163.84548561 486.80709676 -165.61817246 487.19334791 -167.38982201 487.5842762 C-181.89264418 490.78092949 -193.7160732 493.11732085 -206.95703125 484.9921875 C-212.7980748 478.98889274 -214.68103649 472.35802474 -216.359375 464.34375 C-216.53915894 463.50948486 -216.71894287 462.67521973 -216.9041748 461.81567383 C-217.34388347 459.77150408 -217.7762046 457.72574764 -218.20703125 455.6796875 C-219.27550293 455.83115234 -220.34397461 455.98261719 -221.44482422 456.13867188 C-225.45086974 456.70469215 -229.45814021 457.26160015 -233.46582031 457.81591797 C-235.19239859 458.05598904 -236.91864615 458.29845238 -238.64453125 458.54345703 C-265.00484792 462.28088619 -265.00484792 462.28088619 -275.20703125 456.6796875 C-278.08203125 454.2421875 -278.08203125 454.2421875 -280.20703125 451.6796875 C-281.28984375 450.473125 -281.28984375 450.473125 -282.39453125 449.2421875 C-286.6372395 443.24387584 -287.02517482 435.98569209 -287.99732971 428.88858032 C-288.16575864 427.69261746 -288.33418757 426.49665459 -288.50772041 425.26445043 C-288.97285994 421.95333847 -289.43289122 418.6415897 -289.89076602 415.32947016 C-290.3862926 411.75417015 -290.8884059 408.17979462 -291.38970947 404.6053009 C-292.37033417 397.60562482 -293.34494593 390.60512407 -294.3176157 383.60433866 C-295.45093706 375.44924521 -296.59060469 367.29504254 -297.73063564 359.1408848 C-299.7649472 344.58901542 -301.79409095 330.03643029 -303.82006836 315.48339844 C-305.7852111 301.36742501 -307.75305466 287.25183221 -309.72436523 273.13671875 C-309.8457412 272.26762861 -309.96711717 271.39853847 -310.0921712 270.50311227 C-310.58008696 267.00955238 -311.06801839 263.51599468 -311.55597142 260.02243999 C-315.29774722 233.23238085 -319.03709661 206.44198012 -322.76805115 179.65041161 C-323.15923893 176.84143266 -323.55067787 174.0324889 -323.94235039 171.2235775 C-324.47678109 167.39072828 -325.0103028 163.55775286 -325.54371643 159.72476196 C-325.69896823 158.61210956 -325.85422003 157.49945716 -326.01417643 156.35308802 C-330.44663203 124.46689463 -330.44663203 124.46689463 -323.20703125 114.6796875 C-315.49469069 105.6851464 -303.99193328 104.97222503 -292.89453125 103.4921875 C-291.63318359 103.31494141 -290.37183594 103.13769531 -289.07226562 102.95507812 C-279.82937681 101.6796875 -279.82937681 101.6796875 -275.20703125 101.6796875 C-275.23321533 100.97473145 -275.25939941 100.26977539 -275.28637695 99.54345703 C-275.39138751 96.29743438 -275.45568411 93.05177048 -275.51953125 89.8046875 C-275.56142578 88.69609375 -275.60332031 87.5875 -275.64648438 86.4453125 C-275.77386806 77.78322164 -274.17431472 71.08555253 -268.2746582 64.53369141 C-260.81071934 57.17702474 -252.32458812 56.29946239 -242.18728638 56.306427 C-240.7465189 56.31704046 -239.30575353 56.32794483 -237.86499023 56.33911133 C-236.32673662 56.3399588 -234.78848179 56.33948011 -233.25022888 56.33778381 C-229.09789385 56.33692713 -224.94582164 56.35449949 -220.79354739 56.37550569 C-216.44539157 56.39432738 -212.09722897 56.39602724 -207.7490387 56.39958191 C-199.52569305 56.40888629 -191.30246781 56.43347821 -183.07917506 56.46363038 C-173.71277704 56.49722454 -164.34637312 56.51367299 -154.9799298 56.52871668 C-135.72222882 56.56002928 -116.46463974 56.61275836 -97.20703125 56.6796875 C-96.89854248 55.41060547 -96.59005371 54.14152344 -96.2722168 52.83398438 C-93.78346812 42.59560121 -87.17119769 33.91024973 -78.26953125 28.3671875 C-72.92068539 25.38480072 -67.8227088 22.6796875 -61.58203125 22.6796875 C-58.10810976 22.03601504 -58.10810976 22.03601504 -56.68359375 19.45703125 C-55.67461798 17.51648791 -54.68857121 15.563895 -53.72265625 13.6015625 C-49.04500134 4.5838154 -41.40018122 -1.21752205 -31.84765625 -4.4609375 C-20.71842976 -7.08800813 -9.81494599 -5.87159601 0 0 Z M-262.20703125 72.6796875 C-266.24051948 78.39683719 -265.63128956 84.55175469 -265.60144043 91.26803589 C-265.60753153 92.54975335 -265.61362264 93.83147082 -265.61989832 95.1520282 C-265.63628936 98.70318719 -265.63398168 102.25412405 -265.62852335 105.80530763 C-265.62585211 109.6377295 -265.6403867 113.47009229 -265.65261841 117.30249023 C-265.6736706 124.80816088 -265.67821339 132.31375428 -265.67643052 139.81945096 C-265.6751228 145.92050783 -265.67892758 152.02154059 -265.68635559 158.12259293 C-265.68845479 159.88012985 -265.69055239 161.63766678 -265.69264841 163.39520371 C-265.69369194 164.26998537 -265.69473547 165.14476704 -265.69581062 166.04605724 C-265.71471211 182.58975714 -265.71366306 199.13341269 -265.70684129 215.67711891 C-265.70126581 230.809541 -265.72209162 245.94179378 -265.75520176 261.0741763 C-265.78894009 276.61435 -265.80410692 292.15444261 -265.79948473 307.69465363 C-265.79724019 316.41840462 -265.80248088 325.14199914 -265.82737732 333.86571884 C-265.8483923 341.29258004 -265.85198056 348.71919895 -265.83307773 356.14607011 C-265.823921 359.93451367 -265.82277431 363.72250551 -265.84343338 367.51091385 C-265.8655936 371.62008498 -265.848924 375.72819198 -265.82849121 379.83737183 C-265.84100906 381.03173414 -265.85352691 382.22609646 -265.86642408 383.45665157 C-265.79221796 390.40884869 -265.10274458 395.49700652 -260.20703125 400.6796875 C-254.07096245 405.73658268 -247.81939153 405.24574237 -240.11878967 405.1943512 C-238.78200672 405.19968031 -237.44522977 405.20674811 -236.10846418 405.21539825 C-232.44548526 405.23400448 -228.78291119 405.2277278 -225.1199156 405.21724522 C-221.16548442 405.2102474 -217.21113592 405.22625555 -213.25672913 405.23924255 C-205.51387786 405.26087814 -197.77117358 405.2607568 -190.02830202 405.25261701 C-183.73466308 405.2463156 -177.441067 405.24745534 -171.14742851 405.25388908 C-170.25146968 405.25479074 -169.35551085 405.25569239 -168.43240176 405.25662137 C-166.61223033 405.25847259 -164.79205892 405.26033515 -162.97188752 405.26220893 C-145.90549193 405.2787859 -128.83917902 405.27006911 -111.7727884 405.25322335 C-96.16190413 405.23852687 -80.55121234 405.25315423 -64.94035286 405.28199352 C-48.90745567 405.31139169 -32.8746473 405.32235854 -16.84172434 405.31281132 C-15.02796616 405.31178877 -13.21420796 405.31079416 -11.40044975 405.3098278 C-10.50806864 405.30935141 -9.61568752 405.30887502 -8.69626455 405.3083842 C-2.41160672 405.3062206 3.87296696 405.31602126 10.15760612 405.33059883 C17.81867658 405.34812135 25.47950166 405.34800606 33.14056247 405.32524718 C37.04849172 405.31410407 40.95598865 405.3109436 44.86389923 405.32954788 C48.44366027 405.34637051 52.02261253 405.33997876 55.60232133 405.31533109 C57.50584548 405.3081479 59.40941382 405.32546488 61.31286377 405.34374243 C68.34349713 405.26714853 73.56299243 404.66518853 78.79296875 399.6796875 C83.75892632 393.6062169 83.36007646 387.58182907 83.30763245 379.97108459 C83.31805074 378.04722676 83.31805074 378.04722676 83.3286795 376.08450311 C83.34728069 372.53553571 83.34101083 368.98698632 83.33052647 365.43800175 C83.3235272 361.60626999 83.3395379 357.77462346 83.3525238 353.94291687 C83.37415699 346.44069892 83.37403867 338.93863269 83.36589826 331.4363938 C83.35959629 325.33821592 83.3607371 319.24008225 83.36717033 313.14190483 C83.36852282 311.83959701 83.36852282 311.83959701 83.36990262 310.51097993 C83.37175384 308.74717851 83.3736164 306.9833771 83.37549018 305.2195757 C83.39206631 288.6825304 83.38335108 272.14557044 83.3665046 255.60853028 C83.35180824 240.48263317 83.36643545 225.35693472 83.39527477 210.23106319 C83.42467461 194.69537079 83.43563931 179.15977004 83.42609257 163.62405103 C83.42507002 161.86646268 83.42407541 160.10887432 83.42310905 158.35128593 C83.42239447 157.05417591 83.42239447 157.05417591 83.42166545 155.73086165 C83.41950207 149.64156936 83.42930134 143.55236393 83.44388008 137.4630909 C83.46140467 130.03990343 83.46128436 122.61696921 83.43852843 115.19379169 C83.42738716 111.40737362 83.42422058 107.62140168 83.44282913 103.8350029 C83.46275309 99.72805958 83.44384721 95.6222028 83.42115784 91.51527405 C83.43299357 90.32159385 83.44482929 89.12791366 83.45702368 87.89806134 C83.37829677 80.89240345 82.47083007 76.05685991 77.79296875 70.6796875 C73.80066474 67.27090018 69.9015994 67.25979093 64.85327148 67.32324219 C64.06892731 67.32119781 63.28458313 67.31915344 62.47647095 67.31704712 C59.89292822 67.31404761 57.31002901 67.33249076 54.7265625 67.3515625 C52.92725279 67.35462166 51.1279407 67.35649659 49.32862854 67.35723877 C45.56184798 67.3618366 41.79528183 67.37624303 38.02856445 67.3984375 C33.20091151 67.42673964 28.37342715 67.43765182 23.54569912 67.4421196 C19.83195817 67.44627675 16.11825124 67.4560964 12.40452766 67.46799469 C10.62433201 67.4736902 8.84413311 67.47845127 7.06393242 67.48226166 C4.57698708 67.48913854 2.09017432 67.50277732 -0.39672852 67.51855469 C-1.13190201 67.51967255 -1.8670755 67.52079041 -2.62452698 67.52194214 C-5.95766236 67.54993882 -9.01958124 67.64676853 -12.20703125 68.6796875 C-12.36558594 69.42992188 -12.52414062 70.18015625 -12.6875 70.953125 C-15.62005186 83.81746853 -20.34783887 93.69571901 -31.578125 101.28125 C-39.16035438 105.65413777 -45.76773077 107.06928362 -54.45703125 107.0546875 C-55.39345459 107.05380127 -56.32987793 107.05291504 -57.29467773 107.05200195 C-66.07533958 106.90112621 -72.25955716 105.07983996 -79.20703125 99.6796875 C-82.47871091 101.09887626 -84.50583477 102.80373268 -86.921875 105.41015625 C-87.60830078 106.13009766 -88.29472656 106.85003906 -89.00195312 107.59179688 C-90.43437094 109.11300632 -91.85884361 110.64173518 -93.27539062 112.17773438 C-93.96310547 112.89380859 -94.65082031 113.60988281 -95.359375 114.34765625 C-95.97804443 115.01047607 -96.59671387 115.6732959 -97.23413086 116.35620117 C-99.20703125 117.6796875 -99.20703125 117.6796875 -101.94750977 117.38793945 C-102.69315186 117.15421631 -103.43879395 116.92049316 -104.20703125 116.6796875 C-104.93554688 114.43164063 -104.93554688 114.43164063 -105.20703125 111.6796875 C-103.74414063 109.63085938 -103.74414063 109.63085938 -101.55078125 107.6484375 C-100.38869141 106.55595703 -100.38869141 106.55595703 -99.203125 105.44140625 C-97.5390625 103.93359375 -95.875 102.42578125 -94.2109375 100.91796875 C-93.04884766 99.82548828 -93.04884766 99.82548828 -91.86328125 98.7109375 C-91.13947266 98.05673828 -90.41566406 97.40253906 -89.66992188 96.72851562 C-87.92457039 94.74494565 -87.92457039 94.74494565 -88.39477539 92.08227539 C-89.63448238 88.41532123 -91.68626103 85.34794272 -93.734375 82.08203125 C-95.17340521 78.75737525 -95.74056835 76.02695908 -96.29907227 72.46704102 C-96.47140884 71.38399185 -96.64374542 70.30094269 -96.82130432 69.18507385 C-96.94859421 68.35829636 -97.07588409 67.53151886 -97.20703125 66.6796875 C-117.39137313 66.53938756 -137.57561575 66.43365295 -157.76034451 66.36881447 C-167.13295756 66.33790559 -176.50526724 66.29578207 -185.87768555 66.22705078 C-194.04882374 66.16715759 -202.21974218 66.12851677 -210.39109379 66.11515653 C-214.71597161 66.10734945 -219.04022086 66.08906389 -223.36489677 66.04530716 C-227.44030959 66.00440874 -231.51483838 65.99205276 -235.59043694 66.00104141 C-237.08154616 65.99939841 -238.57268668 65.98756529 -240.06361771 65.96445465 C-248.55381905 65.83936797 -256.09289302 66.02546816 -262.20703125 72.6796875 Z " fill="#5E90FC" transform="translate(347.20703125,13.3203125)"/>
<path d="M0 0 C1.21172882 0.00496994 1.21172882 0.00496994 2.44793701 0.01004028 C3.062276 0.01430023 3.67661499 0.01856018 4.30957031 0.02294922 C4.3101674 0.61162352 4.31076449 1.20029782 4.31137967 1.80681074 C4.34728964 36.71237578 4.4039532 71.61784726 4.48749126 106.5233316 C4.49750847 110.71640041 4.50735265 114.9094696 4.51708984 119.10253906 C4.51903122 119.93728809 4.52097259 120.77203713 4.52297279 121.63208158 C4.5539765 135.14036226 4.57096889 148.64862595 4.58276454 162.1569355 C4.59518454 176.02228433 4.62270511 189.88754418 4.66418338 203.75283682 C4.68929449 212.30543062 4.70268934 220.85787681 4.70099989 229.41050799 C4.70097008 235.27890054 4.71563533 241.14714296 4.74173459 247.01547699 C4.7563529 250.39907846 4.76242629 253.78211396 4.755373 257.16577911 C4.74873289 260.84102109 4.76665635 264.51536922 4.79058838 268.19052124 C4.78282796 269.25085835 4.77506754 270.31119546 4.76707196 271.40366399 C4.86023561 279.50337551 6.83305494 285.8954236 10.99707031 292.83544922 C16.50443845 298.04512178 23.05242147 301.13455816 30.6436348 301.16161442 C31.5085143 301.16708886 32.37339381 301.17256331 33.26448178 301.17820364 C34.2100037 301.17918175 35.15552561 301.18015986 36.12969971 301.1811676 C37.64165708 301.18857457 37.64165708 301.18857457 39.18415904 301.19613117 C42.57133872 301.21152421 45.95849941 301.21987172 49.34570312 301.22827148 C51.76990934 301.23784858 54.19411388 301.24785856 56.61831665 301.25827026 C61.8424331 301.27973073 67.06655101 301.2981715 72.29068756 301.3138752 C79.84391688 301.33658533 87.39711829 301.36472658 94.95032391 301.39419448 C107.204826 301.44185636 119.45933952 301.48512435 131.71386719 301.52563477 C143.6181731 301.56499683 155.52246887 301.60642476 167.42675781 301.65063477 C168.16050783 301.65335904 168.89425785 301.65608331 169.65024272 301.65889014 C173.33124183 301.67256973 177.0122408 301.68628998 180.69323969 301.70003045 C211.23199555 301.81397317 241.77077288 301.92071429 272.30957031 302.02294922 C272.30957031 302.35294922 272.30957031 302.68294922 272.30957031 303.02294922 C253.6441268 305.69280422 234.97856333 308.36181909 216.31286335 311.02988052 C207.64268373 312.26920881 198.97254104 313.50879432 190.30249023 314.74902344 C182.73039789 315.83219163 175.15823119 316.91483847 167.58598107 317.99690318 C163.59044949 318.56787685 159.5949513 319.13908157 155.59954262 319.71091461 C137.84374058 322.25199206 120.08431132 324.76041003 102.31361389 327.19538879 C95.96884881 328.06619129 89.63038157 328.97665021 83.29296875 329.89916992 C69.76314703 331.86734634 56.22150104 333.73671331 42.6630249 335.49710083 C40.94298623 335.72063932 39.22313285 335.94560875 37.503479 336.17208862 C35.10088113 336.48774574 32.69757379 336.79728165 30.29394531 337.10498047 C29.58815338 337.19846771 28.88236145 337.29195496 28.15518188 337.38827515 C15.77814877 338.94609953 15.77814877 338.94609953 11.12207031 335.96044922 C10.48914063 335.57759766 9.85621094 335.19474609 9.20410156 334.80029297 C2.93340833 328.91747767 2.29072882 321.72679414 1.24707031 313.58544922 C1.08279541 312.39693359 0.91852051 311.20841797 0.74926758 309.98388672 C-0.45429235 301.17455357 -1.54681301 292.34971591 -2.61645508 283.52319336 C-3.44642771 276.73389309 -4.45470015 269.99189584 -5.56567383 263.24365234 C-6.60018026 256.85464843 -7.41256685 250.44778249 -8.19042969 244.02294922 C-9.04413752 236.97723497 -9.96921396 229.96258079 -11.12792969 222.96044922 C-12.63667127 213.8277475 -13.7903441 204.65341747 -14.94940186 195.47137451 C-15.9378665 187.65645006 -16.9695488 179.85816973 -18.25292969 172.08544922 C-19.34822206 165.43442082 -20.25261946 158.77683932 -21.06542969 152.08544922 C-22.32303517 141.7589977 -23.69769004 131.45166312 -25.12792969 121.14794922 C-25.23536499 120.37359528 -25.34280029 119.59924133 -25.45349121 118.80142212 C-26.82482916 108.94502694 -28.27007705 99.10379838 -29.81542969 89.27294922 C-31.22596107 80.29930273 -32.45688701 71.31971659 -33.53979492 62.30078125 C-34.22036068 56.66578972 -34.95995585 51.04403601 -35.76464844 45.42529297 C-35.94898438 44.13276611 -36.13332031 42.84023926 -36.32324219 41.50854492 C-36.68333264 39.00233437 -37.04889933 36.49690227 -37.42089844 33.99243164 C-39.92578894 16.49366773 -39.92578894 16.49366773 -37.00292969 10.64794922 C-32.90389772 5.99499401 -29.86444486 3.62438345 -23.62792969 2.89794922 C-22.48710938 2.75357422 -21.34628906 2.60919922 -20.17089844 2.46044922 C-19.02234375 2.31607422 -17.87378906 2.17169922 -16.69042969 2.02294922 C-13.70220474 1.49754703 -10.71918154 0.9503159 -7.73730469 0.39013672 C-5.10032676 0.07234707 -2.64890236 -0.01410587 0 0 Z " fill="#9BBFFC" transform="translate(67.6904296875,125.97705078125)"/>
<path d="M0 0 C0.33 0 0.66 0 1 0 C1.31638428 1.51460815 1.31638428 1.51460815 1.63916016 3.05981445 C2.63234424 7.81114954 3.62808822 12.56194573 4.625 17.3125 C4.89910202 18.61873322 4.89910202 18.61873322 5.17874146 19.95135498 C7.36482572 30.35830725 9.58974643 40.75310931 11.9375 51.125 C14.84184657 63.99345832 17.46272207 76.91712244 20.0909729 89.84420776 C23.05525671 104.42346235 26.10493819 118.97973919 29.25097656 133.52099609 C30.0781025 137.3627642 30.89609839 141.20639191 31.7109375 145.05078125 C31.85765396 145.7429071 32.00437042 146.43503296 32.15553284 147.14813232 C32.89851625 150.65521886 33.63990519 154.16263673 34.37963867 157.67041016 C35.81445368 164.46583331 37.27102443 171.25520012 38.77734375 178.03515625 C39.05707031 179.30488281 39.33679688 180.57460938 39.625 181.8828125 C40.15061903 184.26326021 40.68273946 186.64228567 41.22265625 189.01953125 C44.52502328 204.04348673 44.52502328 204.04348673 41.5 210.25 C41.2215625 210.87390625 40.943125 211.4978125 40.65625 212.140625 C35.22581045 218.23706185 26.08459982 219.41502545 18.5 221.0625 C17.43007813 221.30548828 16.36015625 221.54847656 15.2578125 221.79882812 C9.27145474 223.13900442 3.26784583 224.33881675 -2.765625 225.4453125 C-10.55259977 226.87604265 -18.27191768 228.55773026 -25.99377441 230.30288696 C-29.91104083 231.18767882 -33.83064796 232.06200181 -37.75 232.9375 C-38.53368958 233.11275711 -39.31737915 233.28801422 -40.12481689 233.46858215 C-69.79589987 240.09673108 -69.79589987 240.09673108 -83.0625 242.5 C-89.60219715 243.69213229 -96.07740912 245.10341576 -102.5625 246.5625 C-120.22152728 250.53333432 -137.9319766 254.2608167 -155.63841248 258.01338196 C-162.79682135 259.53094802 -169.95353535 261.05630619 -177.109375 262.5859375 C-196.44877278 266.71763656 -215.79322534 270.81323695 -235.17510986 274.74151611 C-243.16860073 276.36164423 -251.1516084 278.00481167 -259.1015625 279.828125 C-260.34067383 280.11139648 -261.57978516 280.39466797 -262.85644531 280.68652344 C-265.10537305 281.20646704 -267.35235842 281.73493338 -269.59667969 282.27441406 C-283.53592609 285.51218087 -283.53592609 285.51218087 -289.5234375 282.8984375 C-296.61349325 277.06484733 -298.83517363 270.9897188 -300 262 C-300.03065678 260.00023497 -300.03778395 257.99964306 -300 256 C-290.27050537 254.38224205 -280.54518011 252.90956225 -270.75 251.75 C-258.58667243 250.29477761 -246.48649604 248.45455877 -234.375 246.625 C-219.17911267 244.33061446 -203.97924921 242.1586967 -188.73522949 240.21057129 C-173.97577465 238.31882079 -159.26611627 236.13235037 -144.55303955 233.91125488 C-132.72664013 232.12756685 -120.90937505 230.37223494 -109.02999878 228.97398376 C-103.14514682 228.27656424 -97.27840086 227.49648721 -91.4140625 226.64453125 C-89.56853449 226.37865769 -87.72299357 226.11287378 -85.87744141 225.84716797 C-84.91880188 225.70881531 -83.96016235 225.57046265 -82.97247314 225.42791748 C-77.87834811 224.69456682 -72.78283333 223.97099214 -67.6875 223.24609375 C-64.52325454 222.79514485 -61.35903929 222.34398437 -58.19482422 221.89282227 C-56.05065352 221.5872378 -53.9064473 221.28190251 -51.76220703 220.97680664 C-45.68852017 220.11248488 -39.61589082 219.24131555 -33.54418945 218.36315918 C-31.29827938 218.04257658 -29.05122021 217.73447288 -26.80273438 217.43261719 C-25.66126953 217.2730957 -24.51980469 217.11357422 -23.34375 216.94921875 C-22.41755859 216.82506592 -21.49136719 216.70091309 -20.53710938 216.57299805 C-13.98110339 215.09234504 -8.65628753 211.56010495 -5 205.9375 C-3.90944417 204.0326699 -3.90944417 204.0326699 -3 202 C-2.65640757 201.29983922 -2.31281513 200.59967844 -1.95881081 199.87830067 C-0.73410629 196.20180078 -0.71167195 192.75014129 -0.7215271 188.91984558 C-0.7128385 187.70674767 -0.7128385 187.70674767 -0.70397437 186.46914274 C-0.68698385 183.76218418 -0.68409868 181.05539622 -0.68115234 178.34838867 C-0.67185352 176.4067849 -0.66168491 174.46518512 -0.65071106 172.52359009 C-0.62339191 167.25340158 -0.60825593 161.98323983 -0.59528303 156.71299911 C-0.57966091 151.20498186 -0.55286775 145.69701934 -0.5272522 140.18904114 C-0.48044817 129.75922584 -0.44371189 119.32940028 -0.41057932 108.89953357 C-0.37236944 97.02536547 -0.3229563 85.1512523 -0.27259517 73.27713048 C-0.16925113 48.85146102 -0.07999874 24.42575629 0 0 Z " fill="#FDFDFE" transform="translate(440,210)"/>
<path d="M0 0 C8.02803556 4.88035255 14.91109857 12.11339899 17.546875 21.3203125 C19.41736452 31.21831957 17.76385451 40.08913318 12.69921875 48.875 C7.30406457 56.45117396 -0.60268977 61.72972022 -9.828125 63.3203125 C-20.75141112 64.31475107 -29.39783188 61.96081956 -38.0078125 55.09375 C-44.13895167 49.12049424 -48.02771281 41.93884604 -48.20874023 33.34350586 C-48.18103497 22.43606541 -46.60562097 14.36886339 -38.8984375 6.14453125 C-28.23838366 -3.24838412 -13.09976199 -6.2861274 0 0 Z " fill="#9BBFFC" transform="translate(307.828125,48.6796875)"/>
<path d="M0 0 C0.9098059 -0.00521549 1.8196118 -0.01043099 2.75698757 -0.01580453 C4.25828008 -0.00911236 4.25828008 -0.00911236 5.78990173 -0.002285 C6.85207192 -0.00540498 7.91424212 -0.00852497 9.00859928 -0.01173949 C12.58541393 -0.01974837 16.16206028 -0.01338455 19.73887634 -0.00710678 C22.29599609 -0.00981536 24.85311506 -0.01337553 27.41023254 -0.0177269 C33.64529219 -0.02591856 39.88028901 -0.02469375 46.11534953 -0.01890162 C51.18152305 -0.01438968 56.24768308 -0.01377019 61.31385803 -0.01594925 C62.03417932 -0.01625572 62.7545006 -0.01656218 63.4966498 -0.01687793 C64.95984801 -0.01751737 66.42304622 -0.01816579 67.88624442 -0.01882312 C81.61515473 -0.0245298 95.34403835 -0.01796321 109.07294428 -0.00722238 C120.85971365 0.00171344 132.64644363 0.00016149 144.43321228 -0.00905991 C158.11211388 -0.01975656 171.79099207 -0.02398045 185.46989727 -0.01783538 C186.92779223 -0.01719826 188.38568719 -0.01656952 189.84358215 -0.01594925 C190.91962451 -0.01548642 190.91962451 -0.01548642 192.01740509 -0.01501425 C197.07903769 -0.01328549 202.14065547 -0.01620629 207.20228577 -0.02090836 C214.01152099 -0.02709467 220.82067012 -0.02270689 227.62990189 -0.01111984 C230.1345571 -0.00846684 232.63921855 -0.00924919 235.14387131 -0.01364517 C238.55184627 -0.01907681 241.95957909 -0.01229542 245.36753845 -0.002285 C246.36840013 -0.00674645 247.3692618 -0.01120789 248.40045261 -0.01580453 C249.76516146 -0.00798129 249.76516146 -0.00798129 251.15744019 0 C251.94449309 0.0003247 252.731546 0.00064941 253.542449 0.00098395 C255.57872009 0.25168228 255.57872009 0.25168228 258.57872009 2.25168228 C258.89122009 5.25168228 258.89122009 5.25168228 258.57872009 8.25168228 C256.1495946 10.68080777 255.57089845 10.50200513 252.24645996 10.50336456 C251.33106162 10.50858006 250.41566328 10.51379555 249.4725256 10.51916909 C247.9541678 10.51247693 247.9541678 10.51247693 246.40513611 10.50564957 C245.33494767 10.50876955 244.26475924 10.51188953 243.16214085 10.51510406 C239.55224774 10.52312372 235.9425209 10.51674497 232.33262634 10.51047134 C229.7543274 10.51317944 227.17602923 10.51673935 224.59773254 10.52109146 C218.30739714 10.53000262 212.01710937 10.52805582 205.72677207 10.52226618 C200.61622968 10.51775645 195.50570067 10.51713379 190.39515686 10.51931381 C189.66886064 10.51962028 188.94256442 10.51992674 188.19425923 10.5202425 C186.71897975 10.52088192 185.24370028 10.52153035 183.76842082 10.52218768 C169.92222964 10.52789602 156.07606491 10.5213252 142.22987807 10.51058695 C130.33930956 10.50165098 118.44878009 10.50320288 106.55821228 10.51242447 C92.7628652 10.52311822 78.96754132 10.52734665 65.17219067 10.52119994 C63.70222156 10.52056282 62.23225244 10.51993408 60.76228333 10.51931381 C60.03895783 10.51900526 59.31563234 10.51869671 58.5703879 10.51837881 C53.46371344 10.51664918 48.35705366 10.51957273 43.25038147 10.52427292 C36.38206909 10.53045533 29.51383194 10.52607796 22.64552689 10.51448441 C20.11787667 10.5118295 17.59022027 10.51261694 15.06257248 10.51700974 C11.62573087 10.52243398 8.18913013 10.51566914 4.75230408 10.50564957 C3.74006555 10.51011101 2.72782701 10.51457245 1.68491459 10.51916909 C0.76951625 10.5139536 -0.14588209 10.5087381 -1.08901978 10.50336456 C-1.88307 10.50303986 -2.67712023 10.50271515 -3.49523258 10.50238061 C-5.42127991 10.25168228 -5.42127991 10.25168228 -7.42127991 8.25168228 C-7.73377991 5.25168228 -7.73377991 5.25168228 -7.42127991 2.25168228 C-4.27964902 0.15726169 -3.57525817 0.001475 0 0 Z " fill="#6092FC" transform="translate(130.42127990722656,173.74831771850586)"/>
<path d="M0 0 C0.67423272 -0.00311998 1.34846543 -0.00623996 2.04312944 -0.00945449 C4.30712096 -0.01744521 6.57084525 -0.01110678 8.83483887 -0.00482178 C10.45601051 -0.00753117 12.07718093 -0.01109181 13.698349 -0.01544189 C18.10528762 -0.02457437 22.51213281 -0.02101811 26.9190731 -0.01468372 C31.52612947 -0.00962817 36.13317771 -0.01431393 40.74023438 -0.01745605 C48.47767578 -0.021097 56.21507903 -0.01629324 63.95251465 -0.0067749 C72.90424739 0.00410989 81.85588904 0.00058441 90.80761957 -0.01042771 C98.48665221 -0.01949693 106.1656574 -0.02078766 113.84469366 -0.01555037 C118.433999 -0.01242866 123.02326148 -0.01202684 127.61256409 -0.01862335 C131.92665443 -0.02439088 136.24062707 -0.02041083 140.55470467 -0.00883484 C142.14020149 -0.00618507 143.72570817 -0.00695873 145.3112011 -0.01136017 C147.47119269 -0.01680466 149.63080427 -0.00999515 151.79077148 0 C153.00087639 0.00075405 154.21098129 0.0015081 155.45775604 0.002285 C158.39538574 0.25396729 158.39538574 0.25396729 161.39538574 2.25396729 C161.70788574 5.25396729 161.70788574 5.25396729 161.39538574 8.25396729 C158.57540751 11.07394552 156.78109755 10.50550557 152.82836914 10.50793457 C152.14611818 10.51105455 151.46386722 10.51417453 150.76094198 10.51738906 C148.46387305 10.52539691 146.16706624 10.51903473 143.86999512 10.51275635 C142.22764429 10.51546498 140.58529468 10.51902519 138.94294739 10.52337646 C134.47403566 10.53251798 130.00521596 10.52894898 125.53630257 10.52261829 C120.86737946 10.5175674 116.19846442 10.5222472 111.52954102 10.52539062 C103.68777039 10.52903293 95.84603738 10.52422424 88.00427246 10.51470947 C78.92814096 10.50382441 69.8520993 10.50734981 60.77596998 10.51836228 C52.994214 10.52742763 45.21248513 10.52872413 37.43072557 10.52348495 C32.77828021 10.52036109 28.12587712 10.51996725 23.47343445 10.52655792 C19.10026515 10.53231984 14.7272121 10.52835576 10.3540554 10.51676941 C8.74556357 10.51411662 7.13706201 10.5148984 5.52857399 10.51929474 C3.33971639 10.5247274 1.15123567 10.51794426 -1.03759766 10.50793457 C-2.87820896 10.50680349 -2.87820896 10.50680349 -4.75600433 10.50564957 C-7.60461426 10.25396729 -7.60461426 10.25396729 -9.60461426 8.25396729 C-9.91711426 5.25396729 -9.91711426 5.25396729 -9.60461426 2.25396729 C-5.97809142 -0.16371461 -4.31733255 0.00269025 0 0 Z " fill="#6192FC" transform="translate(227.6046142578125,346.74603271484375)"/>
<path d="M0 0 C0.68225096 -0.00311998 1.36450192 -0.00623996 2.06742716 -0.00945449 C4.36449609 -0.01746234 6.6613029 -0.01110015 8.95837402 -0.00482178 C10.60072485 -0.00753041 12.24307446 -0.01109062 13.88542175 -0.01544189 C18.35433348 -0.02458341 22.82315318 -0.02101441 27.29206657 -0.01468372 C31.96098968 -0.00963283 36.62990472 -0.01431263 41.29882812 -0.01745605 C49.14059876 -0.02109836 56.98233176 -0.01628967 64.82409668 -0.0067749 C73.90022818 0.00411016 82.97626984 0.00058476 92.05239916 -0.01042771 C99.83415514 -0.01949306 107.61588401 -0.02078956 115.39764357 -0.01555037 C120.05008893 -0.01242652 124.70249202 -0.01203268 129.35493469 -0.01862335 C133.72810399 -0.02438527 138.10115704 -0.02042119 142.47431374 -0.00883484 C144.08280557 -0.00618205 145.69130713 -0.00696383 147.29979515 -0.01136017 C149.48865275 -0.01679283 151.67713347 -0.01000969 153.8659668 0 C155.7065781 0.00113108 155.7065781 0.00113108 157.58437347 0.002285 C160.4329834 0.25396729 160.4329834 0.25396729 162.4329834 2.25396729 C162.7454834 5.25396729 162.7454834 5.25396729 162.4329834 8.25396729 C158.80796422 10.67064674 157.14406097 10.50734239 152.82836914 10.5146637 C151.81702007 10.52040202 151.81702007 10.52040202 150.7852397 10.52625626 C148.52125773 10.53659244 146.25752908 10.53259304 143.99353027 10.52862549 C142.37235784 10.53297159 140.75118745 10.53815439 139.13002014 10.54411316 C134.72308904 10.55752436 130.31624358 10.55807956 125.90929604 10.55554986 C122.23362074 10.55448174 118.55796289 10.55935935 114.88229132 10.56415528 C106.21346582 10.57525747 97.54468366 10.57568365 88.87585449 10.56964111 C79.92409158 10.56359747 70.97248569 10.5759206 62.02074957 10.59721118 C54.34171465 10.61480521 46.66272982 10.62083209 38.98367548 10.61757344 C34.39434193 10.61575717 29.80512042 10.61843104 25.21580505 10.63228798 C20.90167502 10.64482629 16.58779056 10.64296038 12.27366447 10.62987709 C10.68816484 10.62750313 9.10264813 10.63027519 7.51716805 10.63850021 C5.35702289 10.64890058 3.19771206 10.64092233 1.03759766 10.62818909 C-0.17250725 10.62835683 -1.38261215 10.62852457 -2.6293869 10.6286974 C-5.5670166 10.25396729 -5.5670166 10.25396729 -7.46027374 8.89073467 C-9.02415704 6.57790007 -8.91676828 4.98203041 -8.5670166 2.25396729 C-5.74703837 -0.56601095 -3.95272841 0.002429 0 0 Z " fill="#6293FC" transform="translate(226.5670166015625,231.74603271484375)"/>
<path d="M0 0 C5.94328216 5.91686757 7.99269088 12.12344318 8.0703125 20.375 C8.08501544 27.65867427 7.40717238 33.71070851 2.33203125 39.328125 C-1.26216138 42.56011218 -4.84520389 44.86218332 -9.74609375 44.6328125 C-12.2421875 43.75 -12.2421875 43.75 -13.578125 41.34375 C-13.92101562 40.3228125 -14.26390625 39.301875 -14.6171875 38.25 C-18.11625046 29.07177255 -23.57603186 21.63353396 -32.2421875 16.75 C-36.5142273 14.89387236 -40.83918732 13.26688726 -45.2421875 11.75 C-44.46689616 5.47014012 -40.68056151 1.98267397 -36.2421875 -2.25 C-25.19971175 -10.53750225 -10.33996725 -8.37244312 0 0 Z " fill="#9BBFFC" transform="translate(346.2421875,25.25)"/>
<path d="M0 0 C0.68225096 -0.00311998 1.36450192 -0.00623996 2.06742716 -0.00945449 C4.36449609 -0.01746234 6.6613029 -0.01110015 8.95837402 -0.00482178 C10.60072485 -0.00753041 12.24307446 -0.01109062 13.88542175 -0.01544189 C18.35433348 -0.02458341 22.82315318 -0.02101441 27.29206657 -0.01468372 C31.96098968 -0.00963283 36.62990472 -0.01431263 41.29882812 -0.01745605 C49.14059876 -0.02109836 56.98233176 -0.01628967 64.82409668 -0.0067749 C73.90022818 0.00411016 82.97626984 0.00058476 92.05239916 -0.01042771 C99.83415514 -0.01949306 107.61588401 -0.02078956 115.39764357 -0.01555037 C120.05008893 -0.01242652 124.70249202 -0.01203268 129.35493469 -0.01862335 C133.72810399 -0.02438527 138.10115704 -0.02042119 142.47431374 -0.00883484 C144.08280557 -0.00618205 145.69130713 -0.00696383 147.29979515 -0.01136017 C149.48865275 -0.01679283 151.67713347 -0.01000969 153.8659668 0 C155.7065781 0.00113108 155.7065781 0.00113108 157.58437347 0.002285 C160.4329834 0.25396729 160.4329834 0.25396729 162.4329834 2.25396729 C162.6829834 4.75396729 162.6829834 4.75396729 162.4329834 7.25396729 C159.61300516 10.07394552 157.81869521 9.50550557 153.8659668 9.50793457 C153.18371583 9.51105455 152.50146487 9.51417453 151.79853964 9.51738906 C149.5014707 9.52539691 147.2046639 9.51903473 144.90759277 9.51275635 C143.26524195 9.51546498 141.62289234 9.51902519 139.98054504 9.52337646 C135.51163332 9.53251798 131.04281362 9.52894898 126.57390022 9.52261829 C121.90497712 9.5175674 117.23606208 9.5222472 112.56713867 9.52539062 C104.72536804 9.52903293 96.88363504 9.52422424 89.04187012 9.51470947 C79.96573862 9.50382441 70.88969696 9.50734981 61.81356764 9.51836228 C54.03181166 9.52742763 46.25008278 9.52872413 38.46832323 9.52348495 C33.81587787 9.52036109 29.16347478 9.51996725 24.5110321 9.52655792 C20.13786281 9.53231984 15.76480975 9.52835576 11.39165306 9.51676941 C9.78316122 9.51411662 8.17465966 9.5148984 6.56617165 9.51929474 C4.37731404 9.5247274 2.18883333 9.51794426 0 9.50793457 C-1.84061131 9.50680349 -1.84061131 9.50680349 -3.71840668 9.50564957 C-6.5670166 9.25396729 -6.5670166 9.25396729 -8.5670166 7.25396729 C-8.8170166 4.75396729 -8.8170166 4.75396729 -8.5670166 2.25396729 C-5.74703837 -0.56601095 -3.95272841 0.002429 0 0 Z " fill="#5C8FFC" transform="translate(131.5670166015625,289.74603271484375)"/>
<path d="M0 0 C2.4375 0.875 2.4375 0.875 4.4375 3.875 C4.92356873 6.08876038 4.92356873 6.08876038 5.25952148 8.70336914 C5.38983261 9.6861232 5.52014374 10.66887726 5.65440369 11.68141174 C5.78778641 12.74689743 5.92116913 13.81238312 6.05859375 14.91015625 C6.20402115 16.01741562 6.34944855 17.12467499 6.49928284 18.26548767 C6.96526744 21.82190601 7.42071925 25.37956932 7.875 28.9375 C8.47355627 33.57478664 9.07742772 38.21135878 9.68359375 42.84765625 C9.82904633 43.9727359 9.9744989 45.09781555 10.12435913 46.25698853 C11.09114981 53.62046704 12.19861834 60.94406939 13.63999939 68.23097229 C14.46525689 72.69538544 14.35921992 76.43135828 13.4375 80.875 C12.4375 81.875 12.4375 81.875 9.5 82.0625 C6.4375 81.875 6.4375 81.875 4.4375 79.875 C3.85831817 77.32174815 3.39561756 74.83303562 3 72.25 C2.87294678 71.45658203 2.74589355 70.66316406 2.61499023 69.84570312 C1.44954526 62.37191919 0.53682584 54.8685523 -0.36035156 47.35864258 C-1.44388117 38.43225404 -2.80997581 29.55988492 -4.29272461 20.69140625 C-5.26525859 14.67678909 -6.02840291 8.96804202 -5.5625 2.875 C-3.64372244 0.39834606 -3.21194119 -0.15668006 0 0 Z " fill="#5E90FC" transform="translate(49.5625,143.125)"/>
<path d="M0 0 C1.00533279 -0.00525696 1.00533279 -0.00525696 2.03097534 -0.01062012 C4.24528371 -0.01941943 6.45927239 -0.01359547 8.67358398 -0.00683594 C10.2115027 -0.00818295 11.749421 -0.01012379 13.28733826 -0.01263428 C16.5094712 -0.01558296 19.73149323 -0.01129557 22.95361328 -0.00195312 C27.08879944 0.00945091 31.22372626 0.00287442 35.35890293 -0.00909805 C38.53384872 -0.01631542 41.70873272 -0.01402948 44.88368034 -0.00884247 C46.40875212 -0.00750612 47.93382946 -0.00915317 49.45889473 -0.01380157 C51.58733166 -0.01886592 53.71534474 -0.01115876 55.84375 0 C57.66218163 0.00238678 57.66218163 0.00238678 59.51734924 0.00482178 C62.35717773 0.25878906 62.35717773 0.25878906 64.35717773 2.25878906 C64.60717773 5.25878906 64.60717773 5.25878906 64.35717773 8.25878906 C61.53052182 11.08544497 59.6955585 10.51246871 55.73608398 10.51757812 C55.05625458 10.52108276 54.37642517 10.5245874 53.67599487 10.52819824 C51.42378597 10.53701687 49.17188996 10.53116611 46.91967773 10.52441406 C45.35790954 10.52576068 43.79614176 10.52770118 42.234375 10.5302124 C38.95918797 10.53316384 35.68410993 10.52886545 32.40893555 10.51953125 C28.20534083 10.50813664 24.00200148 10.51469601 19.79841614 10.52667618 C16.57285631 10.53389429 13.34735729 10.53160709 10.12179565 10.52642059 C8.57160411 10.52508396 7.02140708 10.5267323 5.47122192 10.5313797 C3.3067558 10.53644422 1.14270647 10.52873616 -1.02172852 10.51757812 C-2.87133179 10.51519135 -2.87133179 10.51519135 -4.75830078 10.51275635 C-7.64282227 10.25878906 -7.64282227 10.25878906 -9.64282227 8.25878906 C-9.95532227 5.25878906 -9.95532227 5.25878906 -9.64282227 2.25878906 C-6.01266845 -0.16131348 -4.321697 0.00566872 0 0 Z " fill="#6193FC" transform="translate(132.642822265625,346.7412109375)"/>
<path d="M0 0 C1.01974411 -0.00525696 1.01974411 -0.00525696 2.06008911 -0.01062012 C4.31229801 -0.01943875 6.56419403 -0.01358799 8.81640625 -0.00683594 C10.37817444 -0.00818255 11.93994223 -0.01012306 13.50170898 -0.01263428 C16.77689602 -0.01558571 20.05197406 -0.01128733 23.32714844 -0.00195312 C27.53074316 0.00944149 31.7340825 0.00288211 35.93766785 -0.00909805 C39.16322767 -0.01631617 42.3887267 -0.01402896 45.61428833 -0.00884247 C47.16447988 -0.00750583 48.7146769 -0.00915418 50.26486206 -0.01380157 C52.42932818 -0.01886609 54.59337752 -0.01115804 56.7578125 0 C58.60741577 0.00238678 58.60741577 0.00238678 60.49438477 0.00482178 C63.37890625 0.25878906 63.37890625 0.25878906 65.37890625 2.25878906 C65.69140625 5.25878906 65.69140625 5.25878906 65.37890625 8.25878906 C61.77535511 10.66115649 60.12961073 10.51688549 55.84375 10.53344727 C55.184888 10.5385582 54.526026 10.54366913 53.84719849 10.54893494 C51.67017526 10.56283076 49.49346854 10.56187445 47.31640625 10.55957031 C45.80330284 10.56345685 44.29020051 10.56779143 42.77709961 10.57255554 C39.60624656 10.58001741 36.43550487 10.57972645 33.26464844 10.57446289 C29.19897591 10.5686638 25.13375829 10.58560961 21.06816101 10.60880756 C17.94377981 10.62352954 14.81950861 10.6244188 11.69509888 10.62129784 C10.19596454 10.62181168 8.69682414 10.62706126 7.19772339 10.63710976 C5.10286758 10.64942967 3.00890373 10.64271075 0.9140625 10.63110352 C-0.27823975 10.63173294 -1.47054199 10.63236237 -2.69897461 10.63301086 C-5.62109375 10.25878906 -5.62109375 10.25878906 -7.51000977 8.89567566 C-9.07958779 6.58332009 -8.97116531 4.98934722 -8.62109375 2.25878906 C-5.79443784 -0.56786685 -3.95947451 0.00510942 0 0 Z " fill="#6293FC" transform="translate(131.62109375,231.7412109375)"/>
<path d="M0 0 C1.03415543 -0.00503792 1.03415543 -0.00503792 2.08920288 -0.01017761 C4.37922951 -0.01971403 6.66918324 -0.02163207 8.95922852 -0.02270508 C10.54484589 -0.02591582 12.13046297 -0.02927975 13.71607971 -0.03279114 C17.044288 -0.03878916 20.37247028 -0.04063035 23.70068359 -0.04003906 C27.97266848 -0.03993741 32.24448727 -0.05359007 36.51643276 -0.07081127 C39.79259512 -0.08191113 43.06871708 -0.08395889 46.34489632 -0.08342934 C47.92021317 -0.08461248 49.49553096 -0.08905289 51.07082939 -0.0967617 C53.27129739 -0.10652112 55.47140158 -0.10369983 57.671875 -0.09765625 C58.92572495 -0.09908127 60.17957489 -0.10050629 61.47142029 -0.10197449 C64.40063477 0.14526367 64.40063477 0.14526367 66.40063477 2.14526367 C66.65063477 4.64526367 66.65063477 4.64526367 66.40063477 7.14526367 C63.57397885 9.97191958 61.73901553 9.39894332 57.77954102 9.40405273 C57.09971161 9.40755737 56.4198822 9.41106201 55.7194519 9.41467285 C53.467243 9.42349148 51.21534699 9.41764072 48.96313477 9.41088867 C47.40136657 9.41223529 45.83959879 9.41417579 44.27783203 9.41668701 C41.002645 9.41963845 37.72756696 9.41534006 34.45239258 9.40600586 C30.24879786 9.39461125 26.04545851 9.40117062 21.84187317 9.41315079 C18.61631334 9.4203689 15.39081432 9.4180817 12.16525269 9.4128952 C10.61506114 9.41155857 9.06486411 9.41320691 7.51467896 9.41785431 C5.35021283 9.42291883 3.1861635 9.41521077 1.02172852 9.40405273 C-0.82787476 9.40166595 -0.82787476 9.40166595 -2.71484375 9.39923096 C-5.59936523 9.14526367 -5.59936523 9.14526367 -7.59936523 7.14526367 C-7.78686523 4.08276367 -7.78686523 4.08276367 -7.59936523 1.14526367 C-5.72056369 -0.73353787 -2.5009501 0.0076079 0 0 Z " fill="#5C8FFC" transform="translate(322.599365234375,289.854736328125)"/>
</svg>
