<?xml version="1.0" encoding="UTF-8"?>
<svg version="1.1" xmlns="http://www.w3.org/2000/svg" width="512" height="512">
<path d="M0 0 C0.97077205 -0.00297112 1.9415441 -0.00594224 2.94173348 -0.0090034 C6.21524342 -0.01771891 9.48871691 -0.01920105 12.76223755 -0.02069092 C15.10084105 -0.02531704 17.4394438 -0.03034142 19.77804565 -0.03573608 C26.14576103 -0.04888109 32.51346585 -0.05530902 38.88119268 -0.05974674 C42.85557161 -0.06267381 46.82994763 -0.06677789 50.8043251 -0.07125092 C61.80356888 -0.0834445 72.80281069 -0.09374379 83.80206108 -0.09712601 C84.50627607 -0.09734557 85.21049106 -0.09756514 85.93604589 -0.09779136 C86.64196548 -0.09800964 87.34788506 -0.09822791 88.07519615 -0.09845281 C89.50570734 -0.09889628 90.93621854 -0.09934284 92.36672974 -0.09979248 C93.07631581 -0.10001391 93.78590188 -0.10023534 94.51699056 -0.10046348 C106.01814097 -0.10441258 117.51922807 -0.12186957 129.02035402 -0.145152 C140.82228869 -0.16885097 152.62419158 -0.18132718 164.42615044 -0.18249393 C171.05499403 -0.18341148 177.68376468 -0.1895012 184.31258774 -0.20731354 C190.54564604 -0.22373613 196.7785474 -0.22597806 203.01161957 -0.21717453 C205.30300185 -0.21640106 207.59439237 -0.22078742 209.88575363 -0.23063278 C213.00670752 -0.24325928 216.12709769 -0.23752616 219.24804688 -0.22705078 C220.16107696 -0.23510719 221.07410705 -0.24316359 222.01480472 -0.25146413 C228.09906681 -0.20349171 228.09906681 -0.20349171 231.28244209 1.47591019 C234.09537908 4.66420819 233.86922144 7.85221234 233.84866333 11.90216064 C233.84544067 13.02042236 233.84221802 14.13868408 233.83889771 15.29083252 C233.8305188 16.45807861 233.82213989 17.62532471 233.81350708 18.82794189 C233.80899536 20.00678955 233.80448364 21.18563721 233.79983521 22.40020752 C233.78803981 25.31366978 233.77157978 28.22703053 233.75100708 31.14044189 C234.55320679 31.12473145 235.35540649 31.109021 236.18191528 31.09283447 C239.80904112 31.03055607 243.43605457 30.99147326 247.06350708 30.95294189 C248.3261438 30.92780518 249.58878052 30.90266846 250.88967896 30.87677002 C252.09817505 30.86710205 253.30667114 30.85743408 254.55178833 30.84747314 C255.66723022 30.8317627 256.78267212 30.81605225 257.93191528 30.79986572 C260.75100708 31.14044189 260.75100708 31.14044189 262.4036051 32.30030388 C264.30124305 34.89189554 264.12705029 36.7264697 264.1285305 39.92322636 C264.13635374 41.13670437 264.14417699 42.35018238 264.1522373 43.60043246 C264.14575056 44.95402601 264.13898057 46.30761823 264.13195801 47.66120911 C264.13541264 49.09368225 264.14017589 50.52615274 264.14613974 51.95861763 C264.15870615 55.90439635 264.15245391 59.84995843 264.14318109 63.7957381 C264.13641398 68.0473123 264.14686013 72.29884834 264.15512085 76.55041504 C264.1684851 84.88267665 264.16556859 93.21485736 264.15688293 101.54712219 C264.15011781 108.31620588 264.14918457 115.08526685 264.15245438 121.85435295 C264.15291408 122.81641939 264.15337377 123.77848582 264.1538474 124.76970578 C264.15480654 126.72388873 264.15577918 128.67807166 264.15676518 130.63225459 C264.16532684 148.97126635 264.15547254 167.31023318 264.13936408 185.64923757 C264.12595806 201.39950201 264.12828983 217.14970013 264.14212036 232.89996338 C264.15815881 251.17326686 264.16450505 269.44653093 264.15528357 287.71984047 C264.15432788 289.66667584 264.15338477 291.61351122 264.15245438 293.5603466 C264.15199155 294.51832648 264.15152872 295.47630635 264.15105187 296.46331592 C264.14845693 303.22811765 264.15284377 309.99289447 264.15989304 316.75769234 C264.1682889 324.99612555 264.1660683 333.23447296 264.1500508 341.47289629 C264.14214251 345.6796915 264.13911977 349.88634344 264.14899826 354.09313774 C264.15789298 357.93901906 264.15309951 361.78462338 264.1370656 365.63047933 C264.1336955 367.02677929 264.13546141 368.42310232 264.14269297 369.81938762 C264.15172637 371.7074089 264.1407286 373.59549509 264.1285305 375.48349857 C264.12779992 377.06107554 264.12779992 377.06107554 264.12705457 378.67052275 C264.0029589 379.48559607 263.87886323 380.30066939 263.75100708 381.14044189 C260.75100708 383.14044189 260.75100708 383.14044189 257.75100708 383.14044189 C256.63318091 390.38196331 256.30657209 397.39482345 260.45144653 403.74603271 C266.03515369 410.49928728 272.55544341 416.35334119 279.00100708 422.26544189 C281.87741988 424.97634394 284.74158578 427.69943367 287.60006714 430.42922974 C289.37340816 432.11482185 291.15916837 433.78747763 292.95907593 435.44467163 C301.34255702 443.26295217 306.60787607 450.60713987 307.12600708 462.39044189 C306.89256202 471.85793601 303.60030806 479.41754144 297.00491333 486.19512939 C289.54133944 492.63682748 281.51283446 494.53716641 271.75100708 494.14044189 C261.10977937 492.54425774 253.65510363 486.38395292 246.59866333 478.68341064 C246.04965363 478.09206833 245.50064392 477.50072601 244.93499756 476.89146423 C242.64722023 474.42345039 240.36303164 471.95764074 238.150177 469.42193604 C232.26395477 462.71969889 227.59582873 457.66054403 218.35267639 456.88587952 C214.78978449 456.78583091 211.3070734 456.88753581 207.75100708 457.14044189 C207.62725708 457.94481689 207.50350708 458.74919189 207.37600708 459.57794189 C207.16975708 460.42356689 206.96350708 461.26919189 206.75100708 462.14044189 C204.3999103 463.31599028 203.01142067 463.26778352 200.39030552 463.27186966 C199.46855709 463.2757108 198.54680865 463.27955195 197.59712845 463.28350949 C196.57779014 463.28264301 195.55845183 463.28177653 194.50822449 463.28088379 C193.43057451 463.28385491 192.35292454 463.28682603 191.2426185 463.28988719 C187.60746752 463.29860512 183.97234935 463.30008503 180.33718872 463.30157471 C177.7408084 463.30620063 175.14442876 463.31122498 172.54804993 463.31661987 C165.4779462 463.33021339 158.40784813 463.3362293 151.33773351 463.34063053 C146.92582723 463.34339085 142.51392315 463.34762777 138.10201836 463.3521347 C125.89408156 463.36432797 113.68614653 463.37462765 101.47820377 463.3780098 C100.30576711 463.37833915 100.30576711 463.37833915 99.10964486 463.37867515 C97.93435932 463.37900256 97.93435932 463.37900256 96.73533064 463.3793366 C95.14753854 463.37978007 93.55974644 463.38022663 91.97195435 463.38067627 C91.18434998 463.3808977 90.39674561 463.38111913 89.58527445 463.38134727 C76.81601221 463.38529743 64.04680695 463.40275781 51.27756674 463.42603579 C38.17725289 463.44972521 25.07696768 463.46221052 11.97663206 463.46337771 C4.61731993 463.46429576 -2.74191792 463.47008057 -10.10120964 463.48819733 C-17.01960788 463.50516839 -23.93786265 463.50686904 -30.85627556 463.49805832 C-33.40124895 463.49728408 -35.94622973 463.50168114 -38.49118423 463.51151657 C-41.9540365 463.52411886 -45.41637893 463.51842326 -48.87922668 463.50793457 C-50.40488806 463.52001918 -50.40488806 463.52001918 -51.96137089 463.53234792 C-52.88572707 463.52575807 -53.81008325 463.51916823 -54.76245022 463.51237869 C-55.96206926 463.51327433 -55.96206926 463.51327433 -57.18592304 463.51418805 C-59.79068318 463.04230918 -60.67731102 462.24131426 -62.24899292 460.14044189 C-62.58956909 457.22955322 -62.58956909 457.22955322 -62.54196167 453.72247314 C-62.5322937 452.46885986 -62.52262573 451.21524658 -62.51266479 449.92364502 C-62.48752808 448.61331299 -62.46239136 447.30298096 -62.43649292 445.95294189 C-62.42144259 444.61767026 -62.40775479 443.28238253 -62.39547729 441.94708252 C-62.36006986 438.67779613 -62.31068182 435.40932097 -62.24899292 432.14044189 C-63.0814856 432.15615234 -63.91397827 432.17186279 -64.771698 432.18804932 C-67.86347148 432.23920831 -70.9550291 432.2768067 -74.04708862 432.30523682 C-76.04226993 432.32772523 -78.03725505 432.36584387 -80.03219604 432.40411377 C-81.28580933 432.41378174 -82.53942261 432.42344971 -83.83102417 432.43341064 C-84.9883606 432.44912109 -86.14569702 432.46483154 -87.33810425 432.48101807 C-90.24899292 432.14044189 -90.24899292 432.14044189 -91.89353627 430.96563727 C-93.74810632 428.46835882 -93.71375038 426.69454529 -93.847188 423.59673977 C-93.90373045 422.43608106 -93.9602729 421.27542235 -94.01852876 420.07959217 C-94.06572405 418.7979964 -94.11291935 417.51640063 -94.1615448 416.19596863 C-94.22155259 414.82459423 -94.28261192 413.45326551 -94.34463471 412.08198076 C-94.51098036 408.30263545 -94.65732255 404.52274518 -94.79923165 400.74241245 C-94.89144483 398.32351464 -94.98905445 395.90489249 -95.08837318 393.48627663 C-96.35249386 362.61573307 -97.11317474 331.73204093 -97.68750216 300.84158116 C-97.78203559 295.75812071 -97.87984051 290.67472801 -97.97970581 285.59136963 C-97.99951876 284.57982288 -98.01933171 283.56827613 -98.03974506 282.52607644 C-98.34547603 267.33480002 -98.90292935 252.16676792 -99.599823 236.98883057 C-100.66101575 213.57225686 -101.33214016 190.17227537 -101.36227417 166.73028564 C-101.36424059 165.7858464 -101.36620701 164.84140715 -101.36823303 163.86834854 C-101.41063343 116.33987234 -98.50310366 76.72111119 -63.63282776 41.71870422 C-20.51575834 -0.01937515 -20.51575834 -0.01937515 0 0 Z " fill="#FCFDFE" transform="translate(149.24899291992188,8.85955810546875)"/>
<path d="M0 0 C1.95581303 1.53951548 3.89338068 3.10247838 5.8125 4.6875 C6.79863281 5.49703125 7.78476562 6.3065625 8.80078125 7.140625 C30.03807665 25.54077199 44.6954842 52.6895262 47.8125 80.6875 C48.99728051 107.0987097 46.70220012 139.31654237 29.01171875 160.8828125 C27.60283122 162.60800893 27.60283122 162.60800893 27.94140625 164.70703125 C29.65039686 168.59249422 32.32840254 171.30564428 35.8125 173.6875 C38.31547721 174.25673896 40.64490868 174.37581321 43.20703125 174.48046875 C58.31570658 175.68100817 69.46812672 191.22790556 79.4375 201.3125 C81.78081001 203.68272987 84.12764956 206.04938645 86.4765625 208.4140625 C86.99449371 208.94029205 87.51242493 209.46652161 88.04605103 210.00869751 C90.83621298 212.8170137 93.69623671 215.48731982 96.69213867 218.07592773 C100.99154511 221.79854706 105.04183662 225.73789589 109.07421875 229.74609375 C109.82790237 230.4940773 110.581586 231.24206085 111.35810852 232.01271057 C112.93844312 233.58366493 114.51738018 235.15602632 116.0949707 236.72973633 C118.49698811 239.12200034 120.90947364 241.50337551 123.32226562 243.88476562 C124.86524156 245.42121426 126.40758113 246.95830229 127.94921875 248.49609375 C128.66389816 249.19842636 129.37857758 249.90075897 130.11491394 250.62437439 C137.78943191 258.33303774 142.69757228 265.79559539 143.1875 276.9375 C142.95405494 286.40499412 139.66180098 293.96459955 133.06640625 300.7421875 C125.60283236 307.18388559 117.57432738 309.08422451 107.8125 308.6875 C94.64947584 306.71304638 85.88081695 297.19300815 76.98242188 288.13867188 C75.19131997 286.31638648 73.38974929 284.50500948 71.5859375 282.6953125 C66.43468888 277.50875543 61.39589251 272.29830105 56.65039062 266.73486328 C51.79034932 261.32090122 46.45140835 256.31508465 41.25463867 251.22558594 C39.69800349 249.69896331 38.14749536 248.16632953 36.59765625 246.6328125 C35.67863525 245.73062988 34.75961426 244.82844727 33.81274414 243.89892578 C31.8125 241.6875 31.8125 241.6875 31.8125 239.6875 C30.98878906 239.3471875 30.98878906 239.3471875 30.1484375 239 C20.63380323 233.65398476 13.19868417 223.1642856 9.5 213.125 C8.8125 209.6875 8.8125 209.6875 8.76171875 207.5390625 C8.59073738 202.26563706 7.54941323 199.90438117 3.75 196.125 C2.45598089 194.95833603 1.14921902 193.80498492 -0.1875 192.6875 C-3.43072096 194.23695451 -6.43854961 196.05743918 -9.5 197.9375 C-27.52773756 208.48657757 -47.95471129 214.10846239 -68.8125 214 C-70.50983276 213.99262817 -70.50983276 213.99262817 -72.24145508 213.98510742 C-105.41672153 213.526268 -133.56765089 199.91025699 -156.79589844 176.56982422 C-178.12372722 154.32413113 -188.94889383 122.81890938 -188.65991211 92.27124023 C-187.68347691 60.66613454 -173.56360208 30.80399855 -150.80859375 9.04296875 C-137.04735896 -3.32368487 -120.30153073 -13.81254533 -102.1875 -18.3125 C-101.54796387 -18.48861816 -100.90842773 -18.66473633 -100.24951172 -18.84619141 C-65.94894396 -28.1865846 -28.68975156 -20.8214109 0 0 Z " fill="#B6D5FE" transform="translate(313.1875,194.3125)"/>
<path d="M0 0 C0.97077205 -0.00297112 1.9415441 -0.00594224 2.94173348 -0.0090034 C6.21524342 -0.01771891 9.48871691 -0.01920105 12.76223755 -0.02069092 C15.10084105 -0.02531704 17.4394438 -0.03034142 19.77804565 -0.03573608 C26.14576103 -0.04888109 32.51346585 -0.05530902 38.88119268 -0.05974674 C42.85557161 -0.06267381 46.82994763 -0.06677789 50.8043251 -0.07125092 C61.80356888 -0.0834445 72.80281069 -0.09374379 83.80206108 -0.09712601 C84.50627607 -0.09734557 85.21049106 -0.09756514 85.93604589 -0.09779136 C86.64196548 -0.09800964 87.34788506 -0.09822791 88.07519615 -0.09845281 C89.50570734 -0.09889628 90.93621854 -0.09934284 92.36672974 -0.09979248 C93.07631581 -0.10001391 93.78590188 -0.10023534 94.51699056 -0.10046348 C106.01814097 -0.10441258 117.51922807 -0.12186957 129.02035402 -0.145152 C140.82228869 -0.16885097 152.62419158 -0.18132718 164.42615044 -0.18249393 C171.05499403 -0.18341148 177.68376468 -0.1895012 184.31258774 -0.20731354 C190.54564604 -0.22373613 196.7785474 -0.22597806 203.01161957 -0.21717453 C205.30300185 -0.21640106 207.59439237 -0.22078742 209.88575363 -0.23063278 C213.00670752 -0.24325928 216.12709769 -0.23752616 219.24804688 -0.22705078 C220.16107696 -0.23510719 221.07410705 -0.24316359 222.01480472 -0.25146413 C228.09906681 -0.20349171 228.09906681 -0.20349171 231.28244209 1.47591019 C234.09537908 4.66420819 233.86922144 7.85221234 233.84866333 11.90216064 C233.84544067 13.02042236 233.84221802 14.13868408 233.83889771 15.29083252 C233.8305188 16.45807861 233.82213989 17.62532471 233.81350708 18.82794189 C233.80899536 20.00678955 233.80448364 21.18563721 233.79983521 22.40020752 C233.78803981 25.31366978 233.77157978 28.22703053 233.75100708 31.14044189 C234.55320679 31.12473145 235.35540649 31.109021 236.18191528 31.09283447 C239.80904112 31.03055607 243.43605457 30.99147326 247.06350708 30.95294189 C248.3261438 30.92780518 249.58878052 30.90266846 250.88967896 30.87677002 C252.09817505 30.86710205 253.30667114 30.85743408 254.55178833 30.84747314 C255.66723022 30.8317627 256.78267212 30.81605225 257.93191528 30.79986572 C260.75100708 31.14044189 260.75100708 31.14044189 262.4036051 32.30030388 C264.30124305 34.89189554 264.12705029 36.7264697 264.1285305 39.92322636 C264.13635374 41.13670437 264.14417699 42.35018238 264.1522373 43.60043246 C264.14575056 44.95402601 264.13898057 46.30761823 264.13195801 47.66120911 C264.13541264 49.09368225 264.14017589 50.52615274 264.14613974 51.95861763 C264.15870615 55.90439635 264.15245391 59.84995843 264.14318109 63.7957381 C264.13641398 68.0473123 264.14686013 72.29884834 264.15512085 76.55041504 C264.1684851 84.88267665 264.16556859 93.21485736 264.15688293 101.54712219 C264.15011781 108.31620588 264.14918457 115.08526685 264.15245438 121.85435295 C264.15291408 122.81641939 264.15337377 123.77848582 264.1538474 124.76970578 C264.15480654 126.72388873 264.15577918 128.67807166 264.15676518 130.63225459 C264.16532684 148.97126635 264.15547254 167.31023318 264.13936408 185.64923757 C264.12595806 201.39950201 264.12828983 217.14970013 264.14212036 232.89996338 C264.15815881 251.17326686 264.16450505 269.44653093 264.15528357 287.71984047 C264.15432788 289.66667584 264.15338477 291.61351122 264.15245438 293.5603466 C264.15199155 294.51832648 264.15152872 295.47630635 264.15105187 296.46331592 C264.14845693 303.22811765 264.15284377 309.99289447 264.15989304 316.75769234 C264.1682889 324.99612555 264.1660683 333.23447296 264.1500508 341.47289629 C264.14214251 345.6796915 264.13911977 349.88634344 264.14899826 354.09313774 C264.15789298 357.93901906 264.15309951 361.78462338 264.1370656 365.63047933 C264.1336955 367.02677929 264.13546141 368.42310232 264.14269297 369.81938762 C264.15172637 371.7074089 264.1407286 373.59549509 264.1285305 375.48349857 C264.12779992 377.06107554 264.12779992 377.06107554 264.12705457 378.67052275 C264.0029589 379.48559607 263.87886323 380.30066939 263.75100708 381.14044189 C260.75100708 383.14044189 260.75100708 383.14044189 257.18850708 382.95294189 C253.75100708 382.14044189 253.75100708 382.14044189 251.75100708 379.14044189 C251.50261009 376.61340457 251.50261009 376.61340457 251.50491142 373.52386189 C251.50092933 372.34746783 251.49694723 371.17107377 251.49284446 369.9590314 C251.49867015 368.6604113 251.50449583 367.3617912 251.51049805 366.02381897 C251.50962635 364.63529608 251.50787603 363.24677351 251.50531971 361.8582527 C251.50083512 358.03406008 251.50886506 354.2099789 251.51887584 350.38580048 C251.52749208 346.26516029 251.52459147 342.14452667 251.52307129 338.02388 C251.52202128 330.881712 251.52830999 323.73958047 251.53954697 316.59742165 C251.5557833 306.27099335 251.56100806 295.94458273 251.56352295 285.61814304 C251.56790299 268.8652307 251.58122046 252.11233781 251.60012817 235.35943604 C251.61847899 219.08306984 251.6326394 202.80670892 251.6411438 186.53033447 C251.64166925 185.52749213 251.64219469 184.52464979 251.64273606 183.49141828 C251.64534609 178.46058227 251.64787352 173.42974623 251.65035987 168.39891016 C251.67110198 126.64607375 251.70648431 84.89325924 251.75100708 43.14044189 C245.48100708 43.14044189 239.21100708 43.14044189 232.75100708 43.14044189 C232.75469425 44.72410427 232.75838142 46.30776665 232.76218033 47.93941879 C232.84876002 85.50903019 232.9147432 123.07862934 232.9552684 160.64831983 C232.96027139 165.26971746 232.96544866 169.89111489 232.97073364 174.51251221 C232.97178288 175.43257232 232.97283213 176.35263242 232.97391316 177.30057314 C232.99133152 192.20971357 233.02287706 207.11879248 233.05961826 222.02789637 C233.09698793 237.31923965 233.11923451 252.61055065 233.12736106 267.90193772 C233.1328571 277.34209154 233.15023291 286.7820715 233.18267295 296.22217181 C233.20377181 302.69037801 233.21021766 309.15849395 233.20501259 315.62673208 C233.20244356 319.36193847 233.20645761 323.09684046 233.22782898 326.8319931 C233.25080517 330.87704725 233.24298731 334.92144852 233.23202515 338.96655273 C233.24367651 340.15331344 233.25532788 341.34007415 233.26733232 342.56279731 C233.25538602 344.18407236 233.25538602 344.18407236 233.24319839 345.83810043 C233.24471728 346.77221245 233.24623616 347.70632446 233.24780107 348.6687429 C232.59638705 351.90972292 231.32814262 353.13412172 228.75100708 355.14044189 C225.35946413 354.97893985 224.16803951 354.55747432 221.75100708 352.14044189 C221.50261009 349.71195495 221.50261009 349.71195495 221.50491142 346.58444023 C221.50092933 345.39610364 221.49694723 344.20776705 221.49284446 342.98342025 C221.49867015 341.66632352 221.50449583 340.34922678 221.51049805 338.99221802 C221.50962662 337.58805899 221.50787681 336.18390028 221.50531971 334.77974331 C221.50082972 330.90768565 221.50887241 327.0357378 221.51887584 323.16369414 C221.52748436 318.99327446 221.52459203 314.82286136 221.52307129 310.6524353 C221.52202079 303.42239785 221.52831461 296.1923964 221.53954697 288.96236801 C221.55577668 278.50886738 221.56100737 268.05538421 221.56352295 257.60187234 C221.56790403 240.64320205 221.58122433 223.68455097 221.60012817 206.72589111 C221.61847629 190.24867854 221.63261509 173.77147119 221.6411438 157.29425049 C221.64167979 156.26883546 221.64221579 155.24342042 221.64276803 154.18693221 C221.64692668 146.16793483 221.6508406 138.14893733 221.65467715 130.12993979 C221.67355658 90.80008954 221.71379032 51.47028733 221.75100708 12.14044189 C147.83100708 12.14044189 73.91100708 12.14044189 -2.24899292 12.14044189 C-2.24899292 37.55044189 -2.24899292 62.96044189 -2.24899292 89.14044189 C-3.23899292 90.13044189 -4.22899292 91.12044189 -5.24899292 92.14044189 C-30.32899292 92.14044189 -55.40899292 92.14044189 -81.24899292 92.14044189 C-81.24899292 200.71044189 -81.24899292 309.28044189 -81.24899292 421.14044189 C2.53680241 421.02159306 2.53680241 421.02159306 86.32254028 420.87017822 C102.49551392 420.85662842 102.49551392 420.85662842 110.05708313 420.85411072 C115.35949201 420.85130594 120.66180956 420.84027134 125.96418762 420.82371521 C132.7172454 420.80266052 139.4701491 420.79695365 146.22324598 420.80122507 C148.70815555 420.80033122 151.19306947 420.79433573 153.67795241 420.7827965 C157.02195568 420.76798293 160.36544351 420.7714317 163.7094574 420.77967834 C164.69263034 420.77094035 165.67580328 420.76220236 166.68876934 420.75319958 C168.03054839 420.7621585 168.03054839 420.7621585 169.39943409 420.77129841 C170.1729244 420.77015925 170.94641472 420.76902009 171.74334413 420.76784641 C174.29919497 421.24217826 175.18623887 422.09839717 176.75100708 424.14044189 C177.12600708 426.64044189 177.12600708 426.64044189 176.75100708 429.14044189 C175.46928424 430.77362043 175.46928424 430.77362043 173.75100708 432.14044189 C170.72723518 432.42905847 167.91065472 432.53183483 164.88633728 432.50120544 C163.96905828 432.50376872 163.05177927 432.50633199 162.10670394 432.50897294 C159.02026978 432.51393072 155.93432031 432.49738496 152.84793091 432.48101807 C150.64062003 432.48017223 148.43330831 432.48064609 146.22599792 432.48234558 C140.22216136 432.48320864 134.21850349 432.46553264 128.21470857 432.44462371 C121.9446466 432.42590857 115.67458083 432.42411055 109.40449524 432.42054749 C98.87682042 432.41227344 88.34920438 432.39351682 77.82156372 432.36676025 C66.97749155 432.3392281 56.13343722 432.3179904 45.28933716 432.30523682 C44.62103832 432.30444865 43.95273948 432.30366048 43.26418916 432.30284842 C39.91156922 432.29893334 36.55894914 432.29514221 33.20632899 432.29141271 C5.38784099 432.26002923 -22.43056787 432.20663705 -50.24899292 432.14044189 C-50.24899292 438.41044189 -50.24899292 444.68044189 -50.24899292 451.14044189 C-48.94363209 451.13675472 -47.63827126 451.13306755 -46.29335403 451.12926865 C-15.32190833 451.04267807 15.64950476 450.97670034 46.62104242 450.93618058 C50.43129127 450.93117762 54.24153986 450.92600034 58.05178833 450.92071533 C58.81035524 450.91966609 59.56892215 450.91861685 60.35047594 450.91753581 C72.64068014 450.90012021 84.93080966 450.8685762 97.22096953 450.83183071 C109.82740252 450.79445336 122.43379635 450.77221285 135.04028249 450.76408792 C142.82214139 450.75859346 150.60378924 450.74122634 158.38558319 450.70877603 C164.34794562 450.68517603 170.31019913 450.68261394 176.27260971 450.68801117 C178.7220299 450.68690742 181.17145781 450.67890722 183.62083054 450.66362 C186.95657415 450.64381554 190.29140344 450.64846842 193.62716675 450.65942383 C194.60381625 450.64777246 195.58046575 450.6361211 196.58671069 450.62411666 C203.07837579 450.68202881 203.07837579 450.68202881 206.3915596 452.94003677 C207.75100708 455.14044189 207.75100708 455.14044189 207.62600708 458.82794189 C207.33725708 459.92106689 207.04850708 461.01419189 206.75100708 462.14044189 C204.3999103 463.31599028 203.01142067 463.26778352 200.39030552 463.27186966 C199.46855709 463.2757108 198.54680865 463.27955195 197.59712845 463.28350949 C196.57779014 463.28264301 195.55845183 463.28177653 194.50822449 463.28088379 C193.43057451 463.28385491 192.35292454 463.28682603 191.2426185 463.28988719 C187.60746752 463.29860512 183.97234935 463.30008503 180.33718872 463.30157471 C177.7408084 463.30620063 175.14442876 463.31122498 172.54804993 463.31661987 C165.4779462 463.33021339 158.40784813 463.3362293 151.33773351 463.34063053 C146.92582723 463.34339085 142.51392315 463.34762777 138.10201836 463.3521347 C125.89408156 463.36432797 113.68614653 463.37462765 101.47820377 463.3780098 C100.30576711 463.37833915 100.30576711 463.37833915 99.10964486 463.37867515 C97.93435932 463.37900256 97.93435932 463.37900256 96.73533064 463.3793366 C95.14753854 463.37978007 93.55974644 463.38022663 91.97195435 463.38067627 C91.18434998 463.3808977 90.39674561 463.38111913 89.58527445 463.38134727 C76.81601221 463.38529743 64.04680695 463.40275781 51.27756674 463.42603579 C38.17725289 463.44972521 25.07696768 463.46221052 11.97663206 463.46337771 C4.61731993 463.46429576 -2.74191792 463.47008057 -10.10120964 463.48819733 C-17.01960788 463.50516839 -23.93786265 463.50686904 -30.85627556 463.49805832 C-33.40124895 463.49728408 -35.94622973 463.50168114 -38.49118423 463.51151657 C-41.9540365 463.52411886 -45.41637893 463.51842326 -48.87922668 463.50793457 C-50.40488806 463.52001918 -50.40488806 463.52001918 -51.96137089 463.53234792 C-52.88572707 463.52575807 -53.81008325 463.51916823 -54.76245022 463.51237869 C-55.96206926 463.51327433 -55.96206926 463.51327433 -57.18592304 463.51418805 C-59.79068318 463.04230918 -60.67731102 462.24131426 -62.24899292 460.14044189 C-62.58956909 457.22955322 -62.58956909 457.22955322 -62.54196167 453.72247314 C-62.5322937 452.46885986 -62.52262573 451.21524658 -62.51266479 449.92364502 C-62.48752808 448.61331299 -62.46239136 447.30298096 -62.43649292 445.95294189 C-62.42144259 444.61767026 -62.40775479 443.28238253 -62.39547729 441.94708252 C-62.36006986 438.67779613 -62.31068182 435.40932097 -62.24899292 432.14044189 C-63.0814856 432.15615234 -63.91397827 432.17186279 -64.771698 432.18804932 C-67.86347148 432.23920831 -70.9550291 432.2768067 -74.04708862 432.30523682 C-76.04226993 432.32772523 -78.03725505 432.36584387 -80.03219604 432.40411377 C-81.28580933 432.41378174 -82.53942261 432.42344971 -83.83102417 432.43341064 C-84.9883606 432.44912109 -86.14569702 432.46483154 -87.33810425 432.48101807 C-90.24899292 432.14044189 -90.24899292 432.14044189 -91.89353627 430.96563727 C-93.74810632 428.46835882 -93.71375038 426.69454529 -93.847188 423.59673977 C-93.90373045 422.43608106 -93.9602729 421.27542235 -94.01852876 420.07959217 C-94.06572405 418.7979964 -94.11291935 417.51640063 -94.1615448 416.19596863 C-94.22155259 414.82459423 -94.28261192 413.45326551 -94.34463471 412.08198076 C-94.51098036 408.30263545 -94.65732255 404.52274518 -94.79923165 400.74241245 C-94.89144483 398.32351464 -94.98905445 395.90489249 -95.08837318 393.48627663 C-96.35249386 362.61573307 -97.11317474 331.73204093 -97.68750216 300.84158116 C-97.78203559 295.75812071 -97.87984051 290.67472801 -97.97970581 285.59136963 C-97.99951876 284.57982288 -98.01933171 283.56827613 -98.03974506 282.52607644 C-98.34547603 267.33480002 -98.90292935 252.16676792 -99.599823 236.98883057 C-100.66101575 213.57225686 -101.33214016 190.17227537 -101.36227417 166.73028564 C-101.36424059 165.7858464 -101.36620701 164.84140715 -101.36823303 163.86834854 C-101.41063343 116.33987234 -98.50310366 76.72111119 -63.63282776 41.71870422 C-20.51575834 -0.01937515 -20.51575834 -0.01937515 0 0 Z " fill="#1676ED" transform="translate(149.24899291992188,8.85955810546875)"/>
<path d="M0 0 C1.95581303 1.53951548 3.89338068 3.10247838 5.8125 4.6875 C6.79863281 5.49703125 7.78476562 6.3065625 8.80078125 7.140625 C30.03807665 25.54077199 44.6954842 52.6895262 47.8125 80.6875 C48.99728051 107.0987097 46.70220012 139.31654237 29.01171875 160.8828125 C27.60283122 162.60800893 27.60283122 162.60800893 27.94140625 164.70703125 C29.65039686 168.59249422 32.32840254 171.30564428 35.8125 173.6875 C38.31547721 174.25673896 40.64490868 174.37581321 43.20703125 174.48046875 C58.31570658 175.68100817 69.46812672 191.22790556 79.4375 201.3125 C81.78081001 203.68272987 84.12764956 206.04938645 86.4765625 208.4140625 C86.99449371 208.94029205 87.51242493 209.46652161 88.04605103 210.00869751 C90.83621298 212.8170137 93.69623671 215.48731982 96.69213867 218.07592773 C100.99154511 221.79854706 105.04183662 225.73789589 109.07421875 229.74609375 C109.82790237 230.4940773 110.581586 231.24206085 111.35810852 232.01271057 C112.93844312 233.58366493 114.51738018 235.15602632 116.0949707 236.72973633 C118.49698811 239.12200034 120.90947364 241.50337551 123.32226562 243.88476562 C124.86524156 245.42121426 126.40758113 246.95830229 127.94921875 248.49609375 C128.66389816 249.19842636 129.37857758 249.90075897 130.11491394 250.62437439 C137.78943191 258.33303774 142.69757228 265.79559539 143.1875 276.9375 C142.95405494 286.40499412 139.66180098 293.96459955 133.06640625 300.7421875 C125.60283236 307.18388559 117.57432738 309.08422451 107.8125 308.6875 C94.64947584 306.71304638 85.88081695 297.19300815 76.98242188 288.13867188 C75.19131997 286.31638648 73.38974929 284.50500948 71.5859375 282.6953125 C66.43468888 277.50875543 61.39589251 272.29830105 56.65039062 266.73486328 C51.79034932 261.32090122 46.45140835 256.31508465 41.25463867 251.22558594 C39.69800349 249.69896331 38.14749536 248.16632953 36.59765625 246.6328125 C35.67863525 245.73062988 34.75961426 244.82844727 33.81274414 243.89892578 C31.8125 241.6875 31.8125 241.6875 31.8125 239.6875 C30.98878906 239.3471875 30.98878906 239.3471875 30.1484375 239 C20.63380323 233.65398476 13.19868417 223.1642856 9.5 213.125 C8.8125 209.6875 8.8125 209.6875 8.76171875 207.5390625 C8.59073738 202.26563706 7.54941323 199.90438117 3.75 196.125 C2.45598089 194.95833603 1.14921902 193.80498492 -0.1875 192.6875 C-3.43072096 194.23695451 -6.43854961 196.05743918 -9.5 197.9375 C-27.52773756 208.48657757 -47.95471129 214.10846239 -68.8125 214 C-70.50983276 213.99262817 -70.50983276 213.99262817 -72.24145508 213.98510742 C-105.41672153 213.526268 -133.56765089 199.91025699 -156.79589844 176.56982422 C-178.12372722 154.32413113 -188.94889383 122.81890938 -188.65991211 92.27124023 C-187.68347691 60.66613454 -173.56360208 30.80399855 -150.80859375 9.04296875 C-137.04735896 -3.32368487 -120.30153073 -13.81254533 -102.1875 -18.3125 C-101.54796387 -18.48861816 -100.90842773 -18.66473633 -100.24951172 -18.84619141 C-65.94894396 -28.1865846 -28.68975156 -20.8214109 0 0 Z M-140.1875 15.6875 C-141.09628906 16.38359375 -141.09628906 16.38359375 -142.0234375 17.09375 C-160.29589073 31.16268113 -171.75282903 56.80881903 -175.74609375 78.7578125 C-179.23342337 109.80430447 -172.42849514 138.03956053 -153.3125 162.875 C-136.97423889 182.47458068 -116.20440989 195.4336767 -91.1875 200.6875 C-90.05344727 200.94805176 -90.05344727 200.94805176 -88.89648438 201.21386719 C-61.42122032 207.24895847 -33.14260972 199.56990148 -9.83642578 184.67456055 C12.69950235 169.54704087 29.31456296 145.02562195 34.6496582 118.40185547 C38.87034995 95.13919581 37.61682162 72.17231147 26.8125 50.6875 C26.31105469 49.64851563 25.80960938 48.60953125 25.29296875 47.5390625 C12.0560065 21.43713694 -10.46725029 3.51382303 -37.8125 -6.1875 C-73.189213 -17.09807504 -112.58435135 -8.97510704 -140.1875 15.6875 Z " fill="#1878ED" transform="translate(313.1875,194.3125)"/>
<path d="M0 0 C15.08641066 12.82575585 24.63947808 30.41133073 26.78222656 50.14208984 C28.18805266 69.19147552 22.53754189 89.2486631 10.28515625 104.12890625 C9.71410156 104.76183594 9.14304687 105.39476562 8.5546875 106.046875 C7.78769531 106.91699219 7.02070313 107.78710938 6.23046875 108.68359375 C-7.46796187 123.34191439 -26.60018011 131.66700465 -46.67578125 132.45410156 C-66.58843518 132.73520005 -85.00035882 125.2871904 -99.61328125 111.81640625 C-114.15985807 97.59085733 -122.21957871 79.07668534 -122.73803711 58.75683594 C-122.91487648 38.99449001 -116.84595378 21.90467339 -103.4453125 7.046875 C-102.85363281 6.36238281 -102.26195312 5.67789063 -101.65234375 4.97265625 C-74.99796687 -23.95501504 -29.55527738 -23.60645158 0 0 Z " fill="#DBEAFC" transform="translate(291.4453125,232.953125)"/>
<path d="M0 0 C6.27 0 12.54 0 19 0 C19.00423194 1.72888867 19.00846388 3.45777735 19.01282406 5.23905659 C19.11342101 46.24606843 19.21911516 87.25306447 19.33111694 128.26004683 C19.34488711 133.30332864 19.35861412 138.34661057 19.37231445 143.38989258 C19.37640691 144.89598203 19.37640691 144.89598203 19.38058204 146.43249752 C19.4247005 162.70671153 19.46531915 178.9809325 19.50465261 195.2551587 C19.54506657 211.94433701 19.58922252 228.63350236 19.63687855 245.32266158 C19.66618453 255.62720868 19.6925445 265.93175478 19.71517897 276.23631873 C19.730963 283.29507221 19.75036985 290.35380983 19.77266841 297.41254572 C19.78544008 301.48977807 19.79657343 305.56699818 19.80341911 309.64424515 C19.80971485 313.37302604 19.82053407 317.10176474 19.8350333 320.8305225 C19.84159477 322.82653668 19.84324219 324.82256511 19.84474558 326.81858951 C19.85022002 327.99498357 19.85569446 329.17137763 19.8613348 330.38341999 C19.86399284 331.40296908 19.86665089 332.42251816 19.86938947 333.47296268 C19.89383986 336.12625071 19.89383986 336.12625071 21 339 C22.32 339.33 23.64 339.66 25 340 C25 345.94 25 351.88 25 358 C18.74074035 352.75059184 12.65710097 347.3169867 6.73583984 341.69018555 C5.57892492 340.60535407 4.40716417 339.53614055 3.22119141 338.4831543 C-7.09227717 329.29865799 -7.09227717 329.29865799 -7.6640625 322.90966797 C-7.64341114 319.10462745 -7.23733343 315.62031342 -6 312 C-3.96875 310.69946289 -3.96875 310.69946289 -2 310 C-0.74174272 307.48348543 -0.86934632 305.7615195 -0.8613348 302.9437542 C-0.85586036 301.86688626 -0.85038591 300.79001833 -0.84474558 299.68051803 C-0.84376747 298.48793164 -0.84278936 297.29534525 -0.84178162 296.06661987 C-0.83437465 294.17745541 -0.83437465 294.17745541 -0.82681805 292.250126 C-0.8132013 288.74296325 -0.80580839 285.23581023 -0.79939139 281.72862792 C-0.79140293 277.95083836 -0.77769983 274.17306915 -0.76467896 270.39529419 C-0.74289409 263.8462678 -0.72475697 257.29723938 -0.70907402 250.74819565 C-0.68639366 241.27929411 -0.65824832 231.81041508 -0.62875474 222.3415326 C-0.5810563 206.98013973 -0.53779823 191.61873767 -0.49731445 176.25732422 C-0.45797097 161.33218673 -0.41654751 146.40705742 -0.37231445 131.48193359 C-0.36822804 130.10272981 -0.36822804 130.10272981 -0.36405908 128.69566332 C-0.35037979 124.08311054 -0.33665948 119.47055788 -0.32291877 114.85800529 C-0.20891863 76.57202048 -0.10219079 38.28601803 0 0 Z " fill="#B8D6FE" transform="translate(382,52)"/>
<path d="M0 0 C4.26499591 3.39176329 8.14745746 7.15292982 12 11 C12.7425 11.73089844 13.485 12.46179688 14.25 13.21484375 C29.97991207 29.71281794 35.52225407 51.33137379 35.28295898 73.55615234 C34.70116207 97.6111319 24.04938553 118.69273705 6.75 135.1875 C-2.71838491 143.49541433 -13.06945432 149.08250739 -25 153 C-25.87140625 153.3196875 -26.7428125 153.639375 -27.640625 153.96875 C-47.67912125 160.29669619 -72.66522601 156.55441469 -91.07275391 147.06396484 C-112.20365431 135.39833728 -126.98038768 116.73488588 -133.99609375 93.734375 C-139.82719437 71.52597262 -137.7177977 49.38763296 -127 29 C-113.65047669 7.03625598 -94.97320396 -7.67223952 -70.18359375 -14.30859375 C-45.50008642 -19.66930638 -20.78260656 -14.3216926 0 0 Z M-106.65234375 20.2109375 C-120.9663188 37.21622566 -126.15679995 56.06727955 -125 78 C-123.04602376 97.90613296 -113.2646058 115.03020394 -98.4375 128.1875 C-82.57773918 140.83108626 -63.2401708 147.06363143 -43 145 C-28.20893146 143.06107067 -13.16275316 137.07148605 -2 127 C-0.69482422 125.84951172 -0.69482422 125.84951172 0.63671875 124.67578125 C15.29503939 110.97735063 23.62012965 91.84513239 24.40722656 71.76953125 C24.69287877 51.53429769 16.95436555 32.64730493 3 18 C-11.45299382 3.41977912 -29.93051713 -4.01800226 -50.3125 -4.3125 C-72.3379379 -4.21663035 -91.49035095 4.28468165 -106.65234375 20.2109375 Z " fill="#1878ED" transform="translate(294,220)"/>
<path d="M0 0 C3.65418448 1.48934468 5.43186395 3.56631716 7.9375 6.5625 C11.75173048 10.51542978 14.14216877 11.60369765 19.625 11.875 C20.73746094 11.89304687 21.84992188 11.91109375 22.99609375 11.9296875 C36.03122722 12.23480116 47.26834878 28.10586799 56.0078125 36.83984375 C57.22656308 38.05537375 58.44538561 39.27083163 59.66427612 40.48622131 C62.19559037 43.01159805 64.72488107 45.53898135 67.25292969 48.06762695 C70.49839288 51.3131928 73.75074467 54.5517632 77.00479317 57.78871822 C79.51309136 60.28594029 82.01687445 62.78765096 84.51937485 65.29068184 C85.71791292 66.48803815 86.91807682 67.68376928 88.11987686 68.87785149 C89.78796317 70.53620398 91.44967035 72.20069409 93.10986328 73.86694336 C93.60844345 74.35990402 94.10702362 74.85286469 94.62071228 75.36076355 C98 78.77166745 98 78.77166745 98 81 C99.485 81.495 99.485 81.495 101 82 C106.66479283 87.38289556 113.14467436 94.38025514 113.5625 102.5 C113.18531694 108.56636085 110.87846939 113.21545408 106.5 117.375 C102.00103779 120.29932544 99.08637945 121.31134756 93.625 121.375 C92.52414062 121.40335937 91.42328125 121.43171875 90.2890625 121.4609375 C83.16271744 120.46223356 78.35923531 114.65631189 73.48168945 109.7722168 C72.75411438 109.05135895 72.02653931 108.3305011 71.2769165 107.58779907 C68.88373048 105.21354461 66.49809587 102.83187981 64.11328125 100.44921875 C62.4476719 98.7900391 60.78191344 97.13100914 59.11601257 95.47212219 C55.63000498 91.99807412 52.1481407 88.51993233 48.66870117 85.03930664 C44.21338711 80.58378911 39.74446139 76.14220117 35.27187824 71.70402813 C31.82920952 68.28360932 28.39568226 64.85412589 24.96465111 61.42203712 C23.32085815 59.78060162 21.67382715 58.14240209 20.02349281 56.50754356 C17.7160762 54.21975297 15.4217137 51.91959872 13.13012695 49.6159668 C12.44903366 48.94611252 11.76794037 48.27625824 11.06620789 47.58610535 C6.44242182 42.90040718 3.14719774 38.6983432 2.875 31.859375 C2.91625 30.83328125 2.9575 29.8071875 3 28.75 C2.72064094 22.56828545 0.76426413 19.77929005 -3.5625 15.6875 C-5.33899773 14.06839953 -7.14203079 12.52739149 -9 11 C-7.59155282 7.78475695 -5.89655214 5.67816132 -3.375 3.25 C-2.74335938 2.63640625 -2.11171875 2.0228125 -1.4609375 1.390625 C-0.73777344 0.70226562 -0.73777344 0.70226562 0 0 Z " fill="#7AB6FE" transform="translate(331,369)"/>
<path d="M0 0 C0.97932303 0.98495013 1.96434974 1.96425465 2.9543457 2.93847656 C5.80041326 5.76688379 8.64354086 8.59822505 11.4855957 11.43066406 C12.71160741 12.65159674 13.93850752 13.87163791 15.16625977 15.09082031 C16.94259214 16.85510415 18.71574625 18.62252714 20.48828125 20.390625 C21.31783073 21.21243256 21.31783073 21.21243256 22.16413879 22.05084229 C23.4618765 23.34838567 24.73388058 24.67158606 26 26 C26 26.33 26 26.66 26 27 C20.06 27 14.12 27 8 27 C7.34 25.68 6.68 24.36 6 23 C3.68632439 21.84316219 2.36237828 21.8702151 -0.21290779 21.8613348 C-1.54605465 21.85312313 -1.54605465 21.85312313 -2.90613377 21.84474558 C-4.37984655 21.84327842 -4.37984655 21.84327842 -5.8833313 21.84178162 C-7.44172802 21.83437465 -7.44172802 21.83437465 -9.03160751 21.82681805 C-12.53555566 21.81138036 -16.03948541 21.8030655 -19.54345703 21.79467773 C-22.04618493 21.78510413 -24.5489112 21.77509437 -27.05163574 21.76467896 C-32.45149313 21.74319327 -37.85134741 21.72475991 -43.25122452 21.70907402 C-51.05859813 21.68638945 -58.86594449 21.65824468 -66.67329501 21.62875474 C-79.33931356 21.58106148 -92.00534324 21.537802 -104.67138672 21.49731445 C-116.97738512 21.45796834 -129.28337361 21.41654425 -141.58935547 21.37231445 C-142.3475269 21.36959018 -143.10569833 21.36686591 -143.88684465 21.36405908 C-147.6902576 21.35037975 -151.49367041 21.33665945 -155.29708314 21.32291877 C-186.86470169 21.20892675 -218.43234096 21.10219704 -250 21 C-250 14.73 -250 8.46 -250 2 C-247.20037277 1.99857498 -244.40074554 1.99714996 -241.51628113 1.99568176 C-215.85890527 1.98031277 -190.20166206 1.9402441 -164.54436744 1.87314438 C-161.18346874 1.86437735 -157.82256952 1.85582759 -154.46166992 1.84741211 C-153.45800376 1.84489352 -153.45800376 1.84489352 -152.4340615 1.84232404 C-141.59171554 1.81563479 -130.74942243 1.80655759 -119.907047 1.80395857 C-108.78651602 1.800902 -97.66611602 1.77861632 -86.54564744 1.73947543 C-80.29738326 1.71809622 -74.04937803 1.70557013 -67.80107689 1.71384621 C-61.92492586 1.72135511 -56.04930088 1.70569235 -50.17324638 1.67193985 C-48.01208293 1.66366836 -45.85086754 1.6640012 -43.68970871 1.67340279 C-40.74740055 1.68493945 -37.80684115 1.66603727 -34.8646698 1.63923645 C-34.00183591 1.64990971 -33.13900201 1.66058297 -32.25002164 1.67157966 C-29.60641352 1.68363457 -29.60641352 1.68363457 -26 1 C-23.99317278 -1.36833545 -23.99317278 -1.36833545 -23 -4 C-20.14130943 -5.10364859 -17.1732203 -5.01838498 -14.125 -5.125 C-13.32191406 -5.19203125 -12.51882813 -5.2590625 -11.69140625 -5.328125 C-10.90894531 -5.36679687 -10.12648438 -5.40546875 -9.3203125 -5.4453125 C-8.61148926 -5.48156738 -7.90266602 -5.51782227 -7.17236328 -5.55517578 C-3.81613602 -4.69744811 -2.31407946 -2.52637438 0 0 Z " fill="#B8D6FE" transform="translate(349,439)"/>
<path d="M0 0 C2.31862293 1.8074449 4.16211185 3.45549477 6.15234375 5.56640625 C6.69734024 6.11989243 7.24233673 6.6733786 7.80384827 7.24363708 C9.52974451 9.00293868 11.23352735 10.78198218 12.9375 12.5625 C14.10862314 13.76373912 15.28113606 14.96362497 16.45507812 16.16210938 C19.31970919 19.09265345 22.16469934 22.04108086 25 25 C29.2073238 21.55400146 33.07650068 17.9602366 36.84765625 14.0390625 C37.70037109 13.15605469 38.55308594 12.27304687 39.43164062 11.36328125 C41.19915571 9.52359591 42.95686722 7.67444563 44.70507812 5.81640625 C45.55650391 4.94113281 46.40792969 4.06585938 47.28515625 3.1640625 C48.04707275 2.36436035 48.80898926 1.5646582 49.59399414 0.74072266 C52.61690543 -1.44632529 54.34593832 -1.43301311 58 -1 C59.875 0.1875 59.875 0.1875 61 2 C61.42578125 4.22729492 61.42578125 4.22729492 61 7 C59.1671212 9.26878747 57.40614538 11.1771381 55.3125 13.17578125 C54.73540283 13.74580368 54.15830566 14.31582611 53.5637207 14.90312195 C51.72055988 16.71832825 49.86077312 18.51536974 48 20.3125 C46.74625948 21.54115923 45.49364087 22.77096439 44.2421875 24.00195312 C41.17431092 27.01474624 38.09140799 30.01136488 35 33 C36.58776696 36.93527497 39.1497774 39.30519965 42.19140625 42.2109375 C43.22894043 43.21831266 44.26603651 44.2261392 45.30273438 45.234375 C46.93265899 46.8085358 48.56614264 48.37846588 50.20776367 49.94042969 C51.7969573 51.45685586 53.36988108 52.98873673 54.94140625 54.5234375 C55.88701416 55.43013184 56.83262207 56.33682617 57.80688477 57.27099609 C60.26161347 60.32553883 60.88075407 62.11183963 61 66 C59.4375 68.4375 59.4375 68.4375 57 70 C52.24203279 69.9066162 49.83989459 68.40889298 46.50857544 65.07505798 C45.99269867 64.53337479 45.4768219 63.99169159 44.9453125 63.43359375 C44.39890106 62.88010757 43.85248962 62.3266214 43.28952026 61.75636292 C41.55587272 59.99484247 39.84046939 58.21671019 38.125 56.4375 C36.94908099 55.2364891 35.77200922 54.03660573 34.59375 52.83789062 C31.71565201 49.90481773 28.85378607 46.95672508 26 44 C21.99708216 45.58480708 19.45297904 48.40612871 16.5703125 51.48046875 C15.51767804 52.57298966 14.46426877 53.66476449 13.41015625 54.75585938 C11.76069786 56.47349144 10.11728353 58.19571441 8.48681641 59.93139648 C6.90542813 61.60957048 5.30275279 63.26478445 3.6953125 64.91796875 C2.97313034 65.70375557 2.97313034 65.70375557 2.23635864 66.50541687 C0.82080078 67.94213867 0.82080078 67.94213867 -2 70 C-5.23095703 70.00512695 -5.23095703 70.00512695 -8 69 C-10.20303828 65.69544257 -10.68241328 64.83267984 -10 61 C-8.1671212 58.73121253 -6.40614538 56.8228619 -4.3125 54.82421875 C-3.73540283 54.25419632 -3.15830566 53.68417389 -2.5637207 53.09687805 C-0.72055988 51.28167175 1.13922688 49.48463026 3 47.6875 C4.25374052 46.45884077 5.50635913 45.22903561 6.7578125 43.99804688 C9.82568908 40.98525376 12.90859201 37.98863512 16 35 C12.62513725 30.89051083 9.13132192 27.08910812 5.29296875 23.40625 C4.45958984 22.60316406 3.62621094 21.80007813 2.76757812 20.97265625 C1.03731786 19.31443559 -0.70242947 17.66606165 -2.45117188 16.02734375 C-9.45376431 9.2266967 -9.45376431 9.2266967 -10.13671875 5.03125 C-10 2 -10 2 -9 0 C-5.7488457 -1.62557715 -3.47170592 -0.84070338 0 0 Z " fill="#1978ED" transform="translate(218,256)"/>
<path d="M0 0 C1.26888062 -0.00845947 2.53776123 -0.01691895 3.84509277 -0.02563477 C5.25407537 -0.01980163 6.66305671 -0.01365711 8.07203674 -0.00723267 C9.55365893 -0.01129711 11.03527808 -0.01663827 12.51689148 -0.02316284 C16.54378884 -0.03685876 20.57045604 -0.03152819 24.59735751 -0.02202559 C28.80889944 -0.01443931 33.02042143 -0.02147185 37.23196411 -0.02618408 C44.30613244 -0.03164525 51.38020688 -0.0244412 58.45436096 -0.01016235 C66.63472475 0.00615858 74.81486417 0.00088121 82.99522251 -0.01564157 C90.01526449 -0.02925369 97.03523889 -0.03117726 104.0552898 -0.02332556 C108.24949735 -0.01864671 112.44359943 -0.01802985 116.63780022 -0.02793503 C120.58178715 -0.03659824 124.52548479 -0.03059478 128.46944046 -0.01325226 C129.91744697 -0.00928366 131.3654778 -0.01042786 132.81347466 -0.01704025 C134.78905242 -0.02523038 136.76468335 -0.01314155 138.74023438 0 C140.39914782 0.00169662 140.39914782 0.00169662 142.09157467 0.00342751 C145.28830081 0.42806664 146.68161831 1.09678828 148.93360901 3.38095093 C149.38444508 6.47239825 149.59759825 8.4165091 147.78820801 11.04464149 C145.11254214 12.97256098 143.10193544 12.75857289 139.82252502 12.76190186 C137.90441513 12.77459106 137.90441513 12.77459106 135.94755554 12.78753662 C134.52754085 12.78170351 133.1075274 12.77555899 131.68751526 12.76913452 C130.19441849 12.7731989 128.70132474 12.77854002 127.20823669 12.7850647 C123.1504163 12.79876017 119.09282432 12.79343053 115.03499985 12.78392744 C110.79229355 12.77634236 106.54960707 12.78337324 102.30690002 12.78808594 C95.18145733 12.79354686 88.05610787 12.78634308 80.93067932 12.77206421 C72.68781215 12.75573702 64.44516757 12.76102529 56.20230579 12.77754343 C49.13047534 12.79114874 42.05871198 12.79308264 34.98687267 12.78522742 C30.76083921 12.78054563 26.53491044 12.77993987 22.30888367 12.78983688 C18.33617333 12.79849044 14.36375053 12.7925144 10.39107132 12.77515411 C8.93135684 12.77118061 7.47161825 12.77233806 6.0119133 12.77894211 C4.02284854 12.78711276 2.03373101 12.77506029 0.04469299 12.76190186 C-1.06954544 12.76077078 -2.18378387 12.7596397 -3.33178711 12.75847435 C-6.06639099 12.38095093 -6.06639099 12.38095093 -7.92489624 11.04464149 C-9.70792287 8.44593958 -9.44872185 6.43959783 -9.06639099 3.38095093 C-6.61503775 -0.1830933 -4.12720281 0.00422244 0 0 Z " fill="#1B79ED" transform="translate(189.06639099121094,43.619049072265625)"/>
<path d="M0 0 C1.91810989 -0.01268921 1.91810989 -0.01268921 3.87496948 -0.02563477 C5.29498418 -0.01980165 6.71499762 -0.01365713 8.13500977 -0.00723267 C9.62810653 -0.01129704 11.12120029 -0.01663817 12.61428833 -0.02316284 C16.67210872 -0.03685831 20.72970071 -0.03152868 24.78752518 -0.02202559 C29.03023147 -0.0144405 33.27291795 -0.02147139 37.515625 -0.02618408 C44.64106769 -0.031645 51.76641716 -0.02444123 58.8918457 -0.01016235 C67.13471288 0.00616484 75.37735745 0.00087656 83.62021923 -0.01564157 C90.69204968 -0.02924688 97.76381304 -0.03118079 104.83565235 -0.02332556 C109.06168581 -0.01864377 113.28761458 -0.01803802 117.51364136 -0.02793503 C121.48635169 -0.03658858 125.4587745 -0.03061255 129.4314537 -0.01325226 C130.89116818 -0.00927875 132.35090678 -0.01043621 133.81061172 -0.01704025 C135.79967649 -0.0252109 137.78879401 -0.01315843 139.77783203 0 C141.44918968 0.00169662 141.44918968 0.00169662 143.15431213 0.00342751 C145.88891602 0.38095093 145.88891602 0.38095093 147.74351501 1.71726036 C149.55290526 4.34539276 149.33975208 6.2895036 148.88891602 9.38095093 C146.64265489 11.65542878 145.25060422 12.33259258 142.06529236 12.75847435 C140.41938866 12.76017097 140.41938866 12.76017097 138.74023438 12.76190186 C136.84747269 12.77459106 136.84747269 12.77459106 134.91647339 12.78753662 C133.52056756 12.78170388 132.124663 12.77555938 130.72875977 12.76913452 C129.25684215 12.77320017 127.78492758 12.77854202 126.3130188 12.7850647 C122.31717068 12.798745 118.32155486 12.79343678 114.32570267 12.78392744 C110.1448631 12.77633452 105.96404347 12.78337543 101.78320312 12.78808594 C94.76208931 12.79354456 87.74107015 12.78634909 80.7199707 12.77206421 C72.60150155 12.75573746 64.48325841 12.76102589 56.36479473 12.77754343 C49.39568744 12.79115526 42.42664821 12.79307945 35.45753193 12.78522742 C31.29463814 12.78054922 27.1318506 12.77993004 22.96896362 12.78983688 C19.05533131 12.7984999 15.14199054 12.79249701 11.22838974 12.77515411 C9.79167032 12.77118569 8.35492639 12.77232943 6.91821671 12.77894211 C4.95801924 12.78713273 2.99776819 12.77504298 1.03759766 12.76190186 C-0.05967148 12.76077078 -1.15694061 12.7596397 -2.28746033 12.75847435 C-5.47277219 12.33259258 -6.86482286 11.65542878 -9.11108398 9.38095093 C-9.56192005 6.2895036 -9.77507323 4.34539276 -7.96568298 1.71726036 C-5.29001711 -0.21065912 -3.27941041 0.00332897 0 0 Z " fill="#1B79ED" transform="translate(189.111083984375,74.61904907226563)"/>
<path d="M0 0 C0 19.47 0 38.94 0 59 C-19.47 59 -38.94 59 -59 59 C-55.23627948 54.60899273 -51.61976149 50.49392523 -47.5612793 46.43188477 C-47.05482376 45.92367691 -46.54836823 45.41546906 -46.02656555 44.89186096 C-44.37826243 43.23921205 -42.72639561 41.59018182 -41.07421875 39.94140625 C-39.91919096 38.78570396 -38.76431157 37.62985333 -37.60957336 36.47386169 C-35.20316815 34.06598994 -32.79498261 31.65991717 -30.38549805 29.25512695 C-27.2905724 26.16593664 -24.20020968 23.07222644 -21.11113262 19.97718906 C-18.7341454 17.59660076 -16.35479717 15.21838382 -13.97471046 12.8408947 C-12.83323491 11.70008769 -11.69250575 10.55853336 -10.55252647 9.41623116 C-8.96799923 7.82918069 -7.38033081 6.24534308 -5.79174805 4.66235352 C-4.88829147 3.75969254 -3.9848349 2.85703156 -3.05400085 1.92701721 C-1 0 -1 0 0 0 Z " fill="#7BB6FE" transform="translate(136,30)"/>
<path d="M0 0 C0.79541199 -0.00525696 1.59082397 -0.01051392 2.41033936 -0.01593018 C5.04198796 -0.02914387 7.67303265 -0.02038744 10.3046875 -0.01025391 C12.13167436 -0.01227425 13.95866044 -0.01518536 15.78564453 -0.01895142 C19.61563796 -0.02337662 23.44542157 -0.01693743 27.27539062 -0.00292969 C32.18853455 0.01416234 37.10118686 0.0043222 42.01431274 -0.01364708 C45.78722854 -0.02447963 49.56002749 -0.02104101 53.33294678 -0.0132637 C55.14467425 -0.01126023 56.95641229 -0.01372612 58.76812744 -0.02070236 C61.2988298 -0.02830821 63.82873233 -0.01672527 66.359375 0 C67.4862674 -0.00910904 67.4862674 -0.00910904 68.63592529 -0.0184021 C73.6727393 0.04337223 73.6727393 0.04337223 76.14501953 1.72494507 C77.7772669 4.34879812 77.55561747 6.38074382 77.1796875 9.38818359 C76.14501953 11.05142212 76.14501953 11.05142212 74.1796875 12.38818359 C71.49583451 12.68422609 69.04385293 12.7980667 66.359375 12.77636719 C65.16625702 12.78425262 65.16625702 12.78425262 63.94903564 12.79229736 C61.31738704 12.80551106 58.68634235 12.79675463 56.0546875 12.78662109 C54.22770064 12.78864144 52.40071456 12.79155255 50.57373047 12.7953186 C46.74373704 12.79974381 42.91395343 12.79330462 39.08398438 12.77929688 C34.17084045 12.76220485 29.25818814 12.77204499 24.34506226 12.79001427 C20.57214646 12.80084682 16.79934751 12.7974082 13.02642822 12.78963089 C11.21470075 12.78762742 9.40296271 12.7900933 7.59124756 12.79706955 C5.0605452 12.8046754 2.53064267 12.79309246 0 12.77636719 C-1.1268924 12.78547623 -1.1268924 12.78547623 -2.27655029 12.79476929 C-7.3133643 12.73299496 -7.3133643 12.73299496 -9.78564453 11.05142212 C-11.4178919 8.42756907 -11.19624247 6.39562336 -10.8203125 3.38818359 C-8.29911761 -0.66466099 -4.28417505 -0.03463039 0 0 Z " fill="#1B79ED" transform="translate(260.8203125,136.61181640625)"/>
<path d="M0 0 C0.79541199 -0.00525696 1.59082397 -0.01051392 2.41033936 -0.01593018 C5.04198796 -0.02914387 7.67303265 -0.02038744 10.3046875 -0.01025391 C12.13167436 -0.01227425 13.95866044 -0.01518536 15.78564453 -0.01895142 C19.61563796 -0.02337662 23.44542157 -0.01693743 27.27539062 -0.00292969 C32.18853455 0.01416234 37.10118686 0.0043222 42.01431274 -0.01364708 C45.78722854 -0.02447963 49.56002749 -0.02104101 53.33294678 -0.0132637 C55.14467425 -0.01126023 56.95641229 -0.01372612 58.76812744 -0.02070236 C61.2988298 -0.02830821 63.82873233 -0.01672527 66.359375 0 C67.4862674 -0.00910904 67.4862674 -0.00910904 68.63592529 -0.0184021 C73.6727393 0.04337223 73.6727393 0.04337223 76.14501953 1.72494507 C77.7772669 4.34879812 77.55561747 6.38074382 77.1796875 9.38818359 C76.14501953 11.05142212 76.14501953 11.05142212 74.1796875 12.38818359 C71.49583451 12.68422609 69.04385293 12.7980667 66.359375 12.77636719 C65.16625702 12.78425262 65.16625702 12.78425262 63.94903564 12.79229736 C61.31738704 12.80551106 58.68634235 12.79675463 56.0546875 12.78662109 C54.22770064 12.78864144 52.40071456 12.79155255 50.57373047 12.7953186 C46.74373704 12.79974381 42.91395343 12.79330462 39.08398438 12.77929688 C34.17084045 12.76220485 29.25818814 12.77204499 24.34506226 12.79001427 C20.57214646 12.80084682 16.79934751 12.7974082 13.02642822 12.78963089 C11.21470075 12.78762742 9.40296271 12.7900933 7.59124756 12.79706955 C5.0605452 12.8046754 2.53064267 12.79309246 0 12.77636719 C-1.1268924 12.78547623 -1.1268924 12.78547623 -2.27655029 12.79476929 C-7.3133643 12.73299496 -7.3133643 12.73299496 -9.78564453 11.05142212 C-11.4178919 8.42756907 -11.19624247 6.39562336 -10.8203125 3.38818359 C-8.29911761 -0.66466099 -4.28417505 -0.03463039 0 0 Z " fill="#1C7AED" transform="translate(260.8203125,105.61181640625)"/>
</svg>
